<svg width="16" height="16" viewBox="0 0 16 16" fill="none" xmlns="http://www.w3.org/2000/svg">
<g id="Circle">
<path id="Vector" d="M7.99992 14.6668C7.0777 14.6668 6.21103 14.4917 5.39992 14.1415C4.58881 13.7917 3.88325 13.3168 3.28325 12.7168C2.68325 12.1168 2.20836 11.4113 1.85859 10.6002C1.50836 9.78905 1.33325 8.92238 1.33325 8.00016C1.33325 7.07794 1.50836 6.21127 1.85859 5.40016C2.20836 4.58905 2.68325 3.8835 3.28325 3.2835C3.88325 2.6835 4.58881 2.20838 5.39992 1.85816C6.21103 1.50838 7.0777 1.3335 7.99992 1.3335C8.92214 1.3335 9.78881 1.50838 10.5999 1.85816C11.411 2.20838 12.1166 2.6835 12.7166 3.2835C13.3166 3.8835 13.7915 4.58905 14.1413 5.40016C14.4915 6.21127 14.6666 7.07794 14.6666 8.00016C14.6666 8.92238 14.4915 9.78905 14.1413 10.6002C13.7915 11.4113 13.3166 12.1168 12.7166 12.7168C12.1166 13.3168 11.411 13.7917 10.5999 14.1415C9.78881 14.4917 8.92214 14.6668 7.99992 14.6668ZM7.99992 13.3335C9.48881 13.3335 10.7499 12.8168 11.7833 11.7835C12.8166 10.7502 13.3333 9.48905 13.3333 8.00016C13.3333 6.51127 12.8166 5.25016 11.7833 4.21683C10.7499 3.1835 9.48881 2.66683 7.99992 2.66683C6.51103 2.66683 5.24992 3.1835 4.21658 4.21683C3.18325 5.25016 2.66659 6.51127 2.66659 8.00016C2.66659 9.48905 3.18325 10.7502 4.21658 11.7835C5.24992 12.8168 6.51103 13.3335 7.99992 13.3335Z" fill="#ffffff"/>
<circle id="Ellipse 4" cx="8" cy="8" r="4" fill="#ffffff"/>
</g>
</svg>
