<svg width="32" height="32" viewBox="0 0 32 32" fill="none" xmlns="http://www.w3.org/2000/svg">
<mask id="mask0_4351_3975" style="mask-type:alpha" maskUnits="userSpaceOnUse" x="4" y="4" width="24" height="24">
<rect x="4" y="4" width="24" height="24" fill="#ffffff"/>
</mask>
<g mask="url(#mask0_4351_3975)">
<path d="M15.29 21.7405L15 21.9105V15.0605L21 11.5905V14.5405C21.72 14.6105 22.39 14.8105 23 15.1305V10.5205C23 10.1505 22.91 9.82047 22.74 9.52047C22.57 9.22047 22.32 8.98047 22 8.80047L15 4.76047C14.68 4.58047 14.35 4.48047 14 4.48047C13.65 4.48047 13.32 4.57047 13 4.76047L6 8.78047C5.68 8.96047 5.44 9.20047 5.26 9.50047C5.08 9.80047 5 10.1305 5 10.5005V18.4505C5 18.8205 5.09 19.1505 5.26 19.4505C5.43 19.7505 5.68 19.9905 6 20.1705L13 24.2005C13.32 24.3805 13.65 24.4705 14 24.4705C14.35 24.4705 14.68 24.3805 15 24.2005L16.26 23.4805C15.84 22.9705 15.51 22.3805 15.29 21.7305V21.7405ZM13 21.9105L7 18.4305V11.5805L13 15.0505V21.9005V21.9105ZM14 13.3305L8.08 9.91047L14 6.48047L19.92 9.91047L14 13.3305Z" fill="#ffffff"/>
<path d="M24.3 22.4C24.52 22.03 24.69 21.65 24.81 21.25C24.93 20.85 25 20.43 25 20C25 18.75 24.56 17.69 23.69 16.81C22.82 15.93 21.75 15.5 20.5 15.5C19.25 15.5 18.19 15.94 17.31 16.81C16.43 17.68 16 18.75 16 20C16 21.25 16.44 22.31 17.31 23.19C18.18 24.07 19.25 24.5 20.5 24.5C20.93 24.5 21.35 24.44 21.75 24.31C22.15 24.18 22.53 24.01 22.9 23.8L25.6 26.5L27 25.1L24.3 22.4ZM22.28 21.78C21.8 22.26 21.2 22.5 20.5 22.5C19.8 22.5 19.21 22.26 18.72 21.78C18.23 21.3 18 20.7 18 20C18 19.3 18.24 18.71 18.72 18.22C19.2 17.73 19.8 17.5 20.5 17.5C21.2 17.5 21.79 17.74 22.28 18.22C22.77 18.7 23 19.3 23 20C23 20.7 22.76 21.29 22.28 21.78Z" fill="#ffffff"/>
</g>
</svg>
