<svg width="24" height="24" viewBox="0 0 24 24" fill="none" xmlns="http://www.w3.org/2000/svg">
<mask id="mask0_2981_759" style="mask-type:alpha" maskUnits="userSpaceOnUse" x="3" y="3" width="18" height="18">
<rect x="3" y="3" width="18" height="18" fill="#D9D9D9"/>
</mask>
<g mask="url(#mask0_2981_759)">
<path d="M10.05 15.375L12 13.425L13.95 15.375L15 14.325L13.05 12.375L15 10.425L13.95 9.375L12 11.325L10.05 9.375L9 10.425L10.95 12.375L9 14.325L10.05 15.375ZM8.25 18.75C7.8375 18.75 7.48437 18.6031 7.19062 18.3094C6.89687 18.0156 6.75 17.6625 6.75 17.25V7.5H6V6H9.75V5.25H14.25V6H18V7.5H17.25V17.25C17.25 17.6625 17.1031 18.0156 16.8094 18.3094C16.5156 18.6031 16.1625 18.75 15.75 18.75H8.25ZM15.75 7.5H8.25V17.25H15.75V7.5Z" fill="white"/>
</g>
</svg>
