<svg width="16" height="16" viewBox="0 0 16 16" fill="none" xmlns="http://www.w3.org/2000/svg">
<g id="deployed_code">
<mask id="mask0_2007_2413" style="mask-type:alpha" maskUnits="userSpaceOnUse" x="0" y="0" width="16" height="16">
<rect id="Bounding box" width="16" height="16" fill="#ffffff"/>
</mask>
<g mask="url(#mask0_2007_2413)">
<g id="deployed_code_2">
<mask id="mask1_2007_2413" style="mask-type:alpha" maskUnits="userSpaceOnUse" x="-1" y="-1" width="17" height="17">
<rect id="Bounding box_2" x="-0.453613" y="-0.197266" width="16" height="16" fill="#ffffff"/>
</mask>
<g mask="url(#mask1_2007_2413)">
<path id="deployed_code_3" d="M6.87972 14.2862L2.21305 11.6029C2.00194 11.4807 1.83805 11.3196 1.72139 11.1196C1.60472 10.9196 1.54639 10.6973 1.54639 10.4529V5.1529C1.54639 4.90845 1.60472 4.68623 1.72139 4.48623C1.83805 4.28623 2.00194 4.12512 2.21305 4.0029L6.87972 1.31956C7.09083 1.19734 7.31305 1.13623 7.54639 1.13623C7.77972 1.13623 8.00194 1.19734 8.21305 1.31956L12.8797 4.0029C13.0908 4.12512 13.2547 4.28623 13.3714 4.48623C13.4881 4.68623 13.5464 4.90845 13.5464 5.1529V10.4529C13.5464 10.6973 13.4881 10.9196 13.3714 11.1196C13.2547 11.3196 13.0908 11.4807 12.8797 11.6029L8.21305 14.2862C8.00194 14.4085 7.77972 14.4696 7.54639 14.4696C7.31305 14.4696 7.09083 14.4085 6.87972 14.2862ZM6.87972 8.18623V12.7529L7.54639 13.1362L8.21305 12.7529V8.18623L12.2131 5.86956V5.16956L11.4964 4.7529L7.54639 7.03623L3.59639 4.7529L2.87972 5.16956V5.86956L6.87972 8.18623Z" fill="#ffffff"/>
</g>
</g>
</g>
</g>
</svg>
