<svg width="16" height="17" viewBox="0 0 16 17" fill="none" xmlns="http://www.w3.org/2000/svg">
<g id="description">
<mask id="mask0_362_6348" style="mask-type:alpha" maskUnits="userSpaceOnUse" x="0" y="0" width="16" height="17">
<rect id="Bounding box" y="0.5" width="16" height="16" fill="#ffffff"/>
</mask>
<g mask="url(#mask0_362_6348)">
<path id="description_2" d="M5.33329 12.5002H10.6666V11.1668H5.33329V12.5002ZM5.33329 9.8335H10.6666V8.50016H5.33329V9.8335ZM3.99996 15.1668C3.63329 15.1668 3.3194 15.0363 3.05829 14.7752C2.79718 14.5141 2.66663 14.2002 2.66663 13.8335V3.16683C2.66663 2.80016 2.79718 2.48627 3.05829 2.22516C3.3194 1.96405 3.63329 1.8335 3.99996 1.8335H9.33329L13.3333 5.8335V13.8335C13.3333 14.2002 13.2027 14.5141 12.9416 14.7752C12.6805 15.0363 12.3666 15.1668 12 15.1668H3.99996ZM8.66663 6.50016V3.16683H3.99996V13.8335H12V6.50016H8.66663Z" fill="#ffffff"/>
</g>
</g>
</svg>
