<svg width="24" height="24" viewBox="0 0 24 24" fill="none" xmlns="http://www.w3.org/2000/svg">
<mask id="mask0_2981_758" style="mask-type:alpha" maskUnits="userSpaceOnUse" x="3" y="3" width="18" height="18">
<rect x="3" y="3" width="18" height="18" fill="#D9D9D9"/>
</mask>
<g mask="url(#mask0_2981_758)">
<path d="M5.25 18.75C4.8375 18.75 4.48438 18.6031 4.19063 18.3094C3.89688 18.0156 3.75 17.6625 3.75 17.25V7.5H5.25V17.25H18V18.75H5.25ZM8.25 15.75C7.8375 15.75 7.48438 15.6031 7.19063 15.3094C6.89688 15.0156 6.75 14.6625 6.75 14.25V6C6.75 5.5875 6.89688 5.23438 7.19063 4.94063C7.48438 4.64688 7.8375 4.5 8.25 4.5H12L13.5 6H18.75C19.1625 6 19.5156 6.14688 19.8094 6.44063C20.1031 6.73438 20.25 7.0875 20.25 7.5V14.25C20.25 14.6625 20.1031 15.0156 19.8094 15.3094C19.5156 15.6031 19.1625 15.75 18.75 15.75H8.25ZM8.25 14.25H18.75V7.5H12.8813L11.3813 6H8.25V14.25Z" fill="white"/>
</g>
</svg>
