<svg width="24" height="24" viewBox="0 0 24 24" fill="none" xmlns="http://www.w3.org/2000/svg">
<mask id="mask0_2980_750" style="mask-type:alpha" maskUnits="userSpaceOnUse" x="3" y="3" width="18" height="18">
<path d="M21 3H3V21H21V3Z" fill="#D9D9D9"/>
</mask>
<g mask="url(#mask0_2980_750)">
<path d="M6.75 17.25H7.81875L15.15 9.91875L14.0813 8.85L6.75 16.1813V17.25ZM5.25 18.75V15.5625L15.15 5.68125C15.3 5.54375 15.4657 5.4375 15.6469 5.3625C15.8282 5.2875 16.0187 5.25 16.2188 5.25C16.4188 5.25 16.6125 5.2875 16.8 5.3625C16.9875 5.4375 17.15 5.55 17.2875 5.7L18.3188 6.75C18.4688 6.8875 18.5781 7.05 18.6468 7.2375C18.7156 7.425 18.75 7.6125 18.75 7.8C18.75 8 18.7156 8.19063 18.6468 8.37188C18.5781 8.55312 18.4688 8.71875 18.3188 8.86875L8.4375 18.75H5.25ZM14.6063 9.39375L14.0813 8.85L15.15 9.91875L14.6063 9.39375Z" fill="white"/>
</g>
</svg>
