<svg width="16" height="16" viewBox="0 0 16 16" fill="none" xmlns="http://www.w3.org/2000/svg">
    <path
        d="M3.5999 13.6004C3.2699 13.6004 2.9874 13.4829 2.7524 13.2479C2.5174 13.0129 2.3999 12.7304 2.3999 12.4004V9.60039H3.5999V12.4004H12.3999V3.60039H3.5999V6.40039H2.3999V3.60039C2.3999 3.27039 2.5174 2.98789 2.7524 2.75289C2.9874 2.51789 3.2699 2.40039 3.5999 2.40039H12.3999C12.7299 2.40039 13.0124 2.51789 13.2474 2.75289C13.4824 2.98789 13.5999 3.27039 13.5999 3.60039V12.4004C13.5999 12.7304 13.4824 13.0129 13.2474 13.2479C13.0124 13.4829 12.7299 13.6004 12.3999 13.6004H3.5999ZM7.1999 11.2004L6.3499 10.3504L8.0999 8.60039H2.3999V7.40039H8.0999L6.3499 5.65039L7.1999 4.80039L10.3999 8.00039L7.1999 11.2004Z"
        fill="#ffffff" />
</svg>