<svg width="16" height="16" viewBox="0 0 16 16" fill="none" xmlns="http://www.w3.org/2000/svg">
<g id="folder_copy">
<mask id="mask0_2001_3382" style="mask-type:alpha" maskUnits="userSpaceOnUse" x="0" y="0" width="16" height="16">
<rect id="Bounding box" width="16" height="16" fill="#ffffff"/>
</mask>
<g mask="url(#mask0_2001_3382)">
<path id="folder_copy_2" d="M2.00008 14.0002C1.63341 14.0002 1.31953 13.8696 1.05841 13.6085C0.797304 13.3474 0.666748 13.0335 0.666748 12.6668V4.00016H2.00008V12.6668H13.3334V14.0002H2.00008ZM4.66675 11.3335C4.30008 11.3335 3.98619 11.2029 3.72508 10.9418C3.46397 10.6807 3.33341 10.3668 3.33341 10.0002V2.66683C3.33341 2.30016 3.46397 1.98627 3.72508 1.72516C3.98619 1.46405 4.30008 1.3335 4.66675 1.3335H8.00008L9.33342 2.66683H14.0001C14.3667 2.66683 14.6806 2.79739 14.9417 3.0585C15.2029 3.31961 15.3334 3.6335 15.3334 4.00016V10.0002C15.3334 10.3668 15.2029 10.6807 14.9417 10.9418C14.6806 11.2029 14.3667 11.3335 14.0001 11.3335H4.66675ZM4.66675 10.0002H14.0001V4.00016H8.78341L7.45008 2.66683H4.66675V10.0002Z" fill="#ffffff"/>
</g>
</g>
</svg>
