<svg width="16" height="16" viewBox="0 0 16 16" fill="none" xmlns="http://www.w3.org/2000/svg">
<g id="folder">
<mask id="mask0_2367_277" style="mask-type:alpha" maskUnits="userSpaceOnUse" x="0" y="0" width="16" height="16">
<rect id="Bounding box" width="16" height="16" fill="#D9D9D9"/>
</mask>
<g mask="url(#mask0_2367_277)">
<path id="folder_2" d="M2.66683 13.3332C2.30016 13.3332 1.98627 13.2026 1.72516 12.9415C1.46405 12.6804 1.3335 12.3665 1.3335 11.9998V3.99984C1.3335 3.63317 1.46405 3.31928 1.72516 3.05817C1.98627 2.79706 2.30016 2.6665 2.66683 2.6665H6.66683L8.00016 3.99984H13.3335C13.7002 3.99984 14.0141 4.13039 14.2752 4.3915C14.5363 4.65262 14.6668 4.9665 14.6668 5.33317V11.9998C14.6668 12.3665 14.5363 12.6804 14.2752 12.9415C14.0141 13.2026 13.7002 13.3332 13.3335 13.3332H2.66683ZM2.66683 11.9998H13.3335V5.33317H7.45016L6.11683 3.99984H2.66683V11.9998Z" fill="#F6F5F3"/>
</g>
</g>
</svg>
