<svg width="24" height="24" viewBox="0 0 24 24" fill="none" xmlns="http://www.w3.org/2000/svg">
    <g id="head_mounted_device">
        <mask id="mask0_2032_1500" style="mask-type:alpha" maskUnits="userSpaceOnUse" x="0" y="0" width="24"
            height="24">
            <rect id="Bounding box" width="24" height="24" fill="#FFFFFF" />
        </mask>
        <g mask="url(#mask0_2032_1500)">
            <path id="head_mounted_device_2"
                d="M7.5 18C6.4 18 5.45833 17.6083 4.675 16.825C3.89167 16.0417 3.5 15.1 3.5 14V9.925C3.5 9.075 3.76667 8.32917 4.3 7.6875C4.83333 7.04583 5.51667 6.65 6.35 6.5C7.3 6.31667 8.24167 6.1875 9.175 6.1125C10.1083 6.0375 11.05 6 12 6C12.95 6 13.8958 6.0375 14.8375 6.1125C15.7792 6.1875 16.7167 6.31667 17.65 6.5C18.4833 6.66667 19.1667 7.06667 19.7 7.7C20.2333 8.33333 20.5 9.075 20.5 9.925V14C20.5 15.1 20.1083 16.0417 19.325 16.825C18.5417 17.6083 17.6 18 16.5 18H15.5C15.2833 18 15.0667 17.9875 14.85 17.9625C14.6333 17.9375 14.425 17.8833 14.225 17.8L12.625 17.25C12.425 17.1667 12.2167 17.125 12 17.125C11.7833 17.125 11.575 17.1667 11.375 17.25L9.775 17.8C9.575 17.8833 9.36667 17.9375 9.15 17.9625C8.93333 17.9875 8.71667 18 8.5 18H7.5ZM7.5 16H8.5C8.61667 16 8.72917 15.9917 8.8375 15.975C8.94583 15.9583 9.05 15.9333 9.15 15.9C9.63333 15.75 10.1042 15.5917 10.5625 15.425C11.0208 15.2583 11.5 15.175 12 15.175C12.5 15.175 12.9833 15.2542 13.45 15.4125C13.9167 15.5708 14.3833 15.7333 14.85 15.9C14.95 15.9333 15.0542 15.9583 15.1625 15.975C15.2708 15.9917 15.3833 16 15.5 16H16.5C17.05 16 17.5208 15.8042 17.9125 15.4125C18.3042 15.0208 18.5 14.55 18.5 14V9.925C18.5 9.55833 18.3833 9.24167 18.15 8.975C17.9167 8.70833 17.625 8.53333 17.275 8.45C16.4083 8.26667 15.5375 8.14583 14.6625 8.0875C13.7875 8.02917 12.9 8 12 8C11.1 8 10.2167 8.03333 9.35 8.1C8.48333 8.16667 7.60833 8.28333 6.725 8.45C6.375 8.51667 6.08333 8.6875 5.85 8.9625C5.61667 9.2375 5.5 9.55833 5.5 9.925V14C5.5 14.55 5.69583 15.0208 6.0875 15.4125C6.47917 15.8042 6.95 16 7.5 16ZM1 14V10H2.5V14H1ZM21.5 14V10H23V14H21.5Z"
                fill="#FFFFFF" />
        </g>
    </g>
</svg>