<svg width="32" height="32" viewBox="0 0 32 32" fill="none" xmlns="http://www.w3.org/2000/svg">
<mask id="mask0_4333_5099" style="mask-type:alpha" maskUnits="userSpaceOnUse" x="4" y="4" width="24" height="24">
<rect x="4" y="4" width="24" height="24" fill="#ffffff"/>
</mask>
<g mask="url(#mask0_4333_5099)">
<path d="M20.1 17.3008L18.65 15.8508C18.8 15.0674 18.575 14.3341 17.975 13.6508C17.375 12.9674 16.6 12.7008 15.65 12.8508L14.2 11.4008C14.4833 11.2674 14.7708 11.1674 15.0625 11.1008C15.3542 11.0341 15.6667 11.0008 16 11.0008C17.25 11.0008 18.3125 11.4383 19.1875 12.3133C20.0625 13.1883 20.5 14.2508 20.5 15.5008C20.5 15.8341 20.4667 16.1466 20.4 16.4383C20.3333 16.7299 20.2333 17.0174 20.1 17.3008ZM23.3 20.4508L21.85 19.0508C22.4833 18.5674 23.0458 18.0383 23.5375 17.4633C24.0292 16.8883 24.45 16.2341 24.8 15.5008C23.9667 13.8174 22.7708 12.4799 21.2125 11.4883C19.6542 10.4966 17.9167 10.0008 16 10.0008C15.5167 10.0008 15.0417 10.0341 14.575 10.1008C14.1083 10.1674 13.65 10.2674 13.2 10.4008L11.65 8.85078C12.3333 8.56745 13.0333 8.35495 13.75 8.21328C14.4667 8.07161 15.2167 8.00078 16 8.00078C18.5167 8.00078 20.7583 8.69661 22.725 10.0883C24.6917 11.4799 26.1167 13.2841 27 15.5008C26.6167 16.4841 26.1125 17.3966 25.4875 18.2383C24.8625 19.0799 24.1333 19.8174 23.3 20.4508ZM23.8 26.6008L19.6 22.4508C19.0167 22.6341 18.4292 22.7716 17.8375 22.8633C17.2458 22.9549 16.6333 23.0008 16 23.0008C13.4833 23.0008 11.2417 22.3049 9.275 20.9133C7.30833 19.5216 5.88333 17.7174 5 15.5008C5.35 14.6174 5.79167 13.7966 6.325 13.0383C6.85833 12.2799 7.46667 11.6008 8.15 11.0008L5.4 8.20078L6.8 6.80078L25.2 25.2008L23.8 26.6008ZM9.55 12.4008C9.06667 12.8341 8.625 13.3091 8.225 13.8258C7.825 14.3424 7.48333 14.9008 7.2 15.5008C8.03333 17.1841 9.22917 18.5216 10.7875 19.5133C12.3458 20.5049 14.0833 21.0008 16 21.0008C16.3333 21.0008 16.6583 20.9799 16.975 20.9383C17.2917 20.8966 17.6167 20.8508 17.95 20.8008L17.05 19.8508C16.8667 19.9008 16.6917 19.9383 16.525 19.9633C16.3583 19.9883 16.1833 20.0008 16 20.0008C14.75 20.0008 13.6875 19.5633 12.8125 18.6883C11.9375 17.8133 11.5 16.7508 11.5 15.5008C11.5 15.3174 11.5125 15.1424 11.5375 14.9758C11.5625 14.8091 11.6 14.6341 11.65 14.4508L9.55 12.4008Z" fill="#ffffff"/>
</g>
</svg>
