<svg xmlns="http://www.w3.org/2000/svg" xmlns:xlink="http://www.w3.org/1999/xlink" viewBox="0 0 16 16">
    <path d="m3.33,14l-1.33-8h12l-1.33,8H3.33Zm1.12-1.33h7.1l.85-5.33H3.6l.85,5.33Zm2.22-2.67h2.67c.19,0,.35-.06.47-.19.13-.13.19-.29.19-.47s-.06-.35-.19-.48-.29-.19-.47-.19h-2.67c-.19,0-.35.06-.47.19-.13.13-.19.29-.19.48s.06.35.19.47c.13.13.29.19.47.19Zm-2.67-4.67c-.19,0-.35-.06-.47-.19-.13-.13-.19-.29-.19-.48s.06-.35.19-.47c.13-.13.29-.19.47-.19h8c.19,0,.35.06.48.19.13.13.19.29.19.47s-.06.35-.19.48c-.13.13-.29.19-.48.19H4Zm1.33-2c-.19,0-.35-.06-.48-.19-.13-.13-.19-.29-.19-.47s.06-.35.19-.48c.13-.13.29-.19.48-.19h5.33c.19,0,.35.06.47.19.13.13.19.29.19.48s-.06.35-.19.47c-.13.13-.29.19-.47.19h-5.33Z" fill="#fff"/>
</svg>