<svg width="32" height="33" viewBox="0 0 32 33" fill="none" xmlns="http://www.w3.org/2000/svg">
<mask id="mask0_4683_7811" style="mask-type:alpha" maskUnits="userSpaceOnUse" x="4" y="4" width="24" height="25">
<rect x="4" y="4.5" width="24" height="24" fill="#ffffff"/>
</mask>
<g mask="url(#mask0_4683_7811)">
<path d="M16 20.5C17.25 20.5 18.3125 20.0625 19.1875 19.1875C20.0625 18.3125 20.5 17.25 20.5 16C20.5 14.75 20.0625 13.6875 19.1875 12.8125C18.3125 11.9375 17.25 11.5 16 11.5C14.75 11.5 13.6875 11.9375 12.8125 12.8125C11.9375 13.6875 11.5 14.75 11.5 16C11.5 17.25 11.9375 18.3125 12.8125 19.1875C13.6875 20.0625 14.75 20.5 16 20.5ZM16 18.7C15.25 18.7 14.6125 18.4375 14.0875 17.9125C13.5625 17.3875 13.3 16.75 13.3 16C13.3 15.25 13.5625 14.6125 14.0875 14.0875C14.6125 13.5625 15.25 13.3 16 13.3C16.75 13.3 17.3875 13.5625 17.9125 14.0875C18.4375 14.6125 18.7 15.25 18.7 16C18.7 16.75 18.4375 17.3875 17.9125 17.9125C17.3875 18.4375 16.75 18.7 16 18.7ZM16 23.5C13.5667 23.5 11.35 22.8208 9.35 21.4625C7.35 20.1042 5.9 18.2833 5 16C5.9 13.7167 7.35 11.8958 9.35 10.5375C11.35 9.17917 13.5667 8.5 16 8.5C18.4333 8.5 20.65 9.17917 22.65 10.5375C24.65 11.8958 26.1 13.7167 27 16C26.1 18.2833 24.65 20.1042 22.65 21.4625C20.65 22.8208 18.4333 23.5 16 23.5ZM16 21.5C17.8833 21.5 19.6125 21.0042 21.1875 20.0125C22.7625 19.0208 23.9667 17.6833 24.8 16C23.9667 14.3167 22.7625 12.9792 21.1875 11.9875C19.6125 10.9958 17.8833 10.5 16 10.5C14.1167 10.5 12.3875 10.9958 10.8125 11.9875C9.2375 12.9792 8.03333 14.3167 7.2 16C8.03333 17.6833 9.2375 19.0208 10.8125 20.0125C12.3875 21.0042 14.1167 21.5 16 21.5Z" fill="#ffffff"/>
</g>
</svg>
