<svg width="32" height="33" viewBox="0 0 32 33" fill="none" xmlns="http://www.w3.org/2000/svg">
<mask id="mask0_4693_8132" style="mask-type:alpha" maskUnits="userSpaceOnUse" x="4" y="4" width="24" height="25">
<rect x="4" y="4.5" width="24" height="24" fill="#ffffff"/>
</mask>
<g mask="url(#mask0_4693_8132)">
<path d="M24 16.71C23.16 16.71 22.45 17.23 22.15 17.96H14.54V10.35C15.27 10.05 15.79 9.34 15.79 8.5C15.79 7.4 14.89 6.5 13.79 6.5C12.69 6.5 11.79 7.4 11.79 8.5C11.79 9.34 12.31 10.05 13.04 10.35V18.39L8.78 22.65C8.54 22.55 8.28 22.49 8 22.49C6.9 22.49 6 23.39 6 24.49C6 25.59 6.9 26.49 8 26.49C9.1 26.49 10 25.59 10 24.49C10 24.21 9.94 23.95 9.84 23.71L14.09 19.46H22.15C22.45 20.19 23.16 20.71 24 20.71C25.1 20.71 26 19.81 26 18.71C26 17.61 25.1 16.71 24 16.71Z" fill="#ffffff"/>
</g>
</svg>
