<svg width="24" height="24" viewBox="0 0 24 24" fill="none" xmlns="http://www.w3.org/2000/svg">
<g id="left_click">
<mask id="mask0_2143_1013" style="mask-type:alpha" maskUnits="userSpaceOnUse" x="0" y="0" width="24" height="24">
<rect id="Bounding box" width="24" height="24" fill="#ffffff"/>
</mask>
<g mask="url(#mask0_2143_1013)">
<path id="left_click_2" d="M11.7 18C10.1 17.9167 8.75 17.3 7.65 16.15C6.55 15 6 13.6167 6 12C6 10.3333 6.58333 8.91667 7.75 7.75C8.91667 6.58333 10.3333 6 12 6C13.6167 6 15 6.55 16.15 7.65C17.3 8.75 17.9167 10.1 18 11.7L15.9 11.075C15.6833 10.175 15.2167 9.4375 14.5 8.8625C13.7833 8.2875 12.95 8 12 8C10.9 8 9.95833 8.39167 9.175 9.175C8.39167 9.95833 8 10.9 8 12C8 12.95 8.2875 13.7833 8.8625 14.5C9.4375 15.2167 10.175 15.6833 11.075 15.9L11.7 18ZM20.525 22.5L16.25 18.225L15 22L12 12L22 15L18.225 16.25L22.5 20.525L20.525 22.5Z" fill="#ffffff"/>
</g>
</g>
</svg>
