<svg xmlns="http://www.w3.org/2000/svg" xmlns:xlink="http://www.w3.org/1999/xlink" viewBox="0 0 222 97">
  <path d="m24.33,72.5v-5.33h5.33v-5.33H13.67c-1.47,0-2.72-.52-3.77-1.57-1.04-1.04-1.57-2.3-1.57-3.77v-26.67c0-1.47.52-2.72,1.57-3.77,1.04-1.04,2.3-1.57,3.77-1.57h42.67c1.47,0,2.72.52,3.77,1.57,1.04,1.04,1.57,2.3,1.57,3.77v26.67c0,1.47-.52,2.72-1.57,3.77-1.04,1.04-2.3,1.57-3.77,1.57h-16v5.33h5.33v5.33h-21.33Zm-10.67-16h42.67v-26.67H13.67v26.67Z" fill="#fff"/>
  <path d="m131,52.5h-12v-4h12v4Zm-16,0h-12v-4h12v4Zm-16,0h-8v-4h8v4Z" fill="#fff"/>
  <path d="m175,64.5c-2.93,0-5.44-1.04-7.53-3.13-2.09-2.09-3.13-4.6-3.13-7.53v-10.87c0-2.27.71-4.26,2.13-5.97,1.42-1.71,3.24-2.77,5.47-3.17,2.53-.49,5.04-.83,7.53-1.03s5-.3,7.53-.3,5.06.1,7.57.3,5.01.54,7.5,1.03c2.22.44,4.04,1.51,5.47,3.2,1.42,1.69,2.13,3.67,2.13,5.93v10.87c0,2.93-1.04,5.44-3.13,7.53-2.09,2.09-4.6,3.13-7.53,3.13h-2.67c-.58,0-1.16-.03-1.73-.1-.58-.07-1.13-.21-1.67-.43l-4.27-1.47c-.53-.22-1.09-.33-1.67-.33s-1.13.11-1.67.33l-4.27,1.47c-.53.22-1.09.37-1.67.43-.58.07-1.15.1-1.73.1h-2.67Zm0-5.33h2.67c.31,0,.61-.02.9-.07.29-.04.57-.11.83-.2,1.29-.4,2.55-.82,3.77-1.27,1.22-.44,2.5-.67,3.83-.67s2.62.21,3.87.63c1.24.42,2.49.86,3.73,1.3.27.09.54.16.83.2.29.04.59.07.9.07h2.67c1.47,0,2.72-.52,3.77-1.57,1.04-1.04,1.57-2.3,1.57-3.77v-10.87c0-.98-.31-1.82-.93-2.53-.62-.71-1.4-1.18-2.33-1.4-2.31-.49-4.63-.81-6.97-.97-2.33-.16-4.7-.23-7.1-.23s-4.76.09-7.07.27c-2.31.18-4.65.49-7,.93-.93.18-1.71.63-2.33,1.37-.62.73-.93,1.59-.93,2.57v10.87c0,1.47.52,2.72,1.57,3.77,1.04,1.04,2.3,1.57,3.77,1.57Zm-17.33-5.33v-10.67h4v10.67h-4Zm54.67,0v-10.67h4v10.67h-4Z" fill="#fff"/>
</svg>