<svg width="32" height="32" viewBox="0 0 32 32" fill="none" xmlns="http://www.w3.org/2000/svg">
<mask id="mask0_4333_5097" style="mask-type:alpha" maskUnits="userSpaceOnUse" x="4" y="4" width="24" height="24">
<rect x="4" y="4" width="24" height="24" fill="#ffffff"/>
</mask>
<g mask="url(#mask0_4333_5097)">
<path d="M7 18.5C6.86667 18.5 6.75 18.45 6.65 18.35C6.55 18.25 6.5 18.1333 6.5 18C6.5 17.8667 6.55 17.75 6.65 17.65C6.75 17.55 6.86667 17.5 7 17.5C7.13333 17.5 7.25 17.55 7.35 17.65C7.45 17.75 7.5 17.8667 7.5 18C7.5 18.1333 7.45 18.25 7.35 18.35C7.25 18.45 7.13333 18.5 7 18.5ZM7 14.5C6.86667 14.5 6.75 14.45 6.65 14.35C6.55 14.25 6.5 14.1333 6.5 14C6.5 13.8667 6.55 13.75 6.65 13.65C6.75 13.55 6.86667 13.5 7 13.5C7.13333 13.5 7.25 13.55 7.35 13.65C7.45 13.75 7.5 13.8667 7.5 14C7.5 14.1333 7.45 14.25 7.35 14.35C7.25 14.45 7.13333 14.5 7 14.5ZM10 23C9.71667 23 9.47917 22.9042 9.2875 22.7125C9.09583 22.5208 9 22.2833 9 22C9 21.7167 9.09583 21.4792 9.2875 21.2875C9.47917 21.0958 9.71667 21 10 21C10.2833 21 10.5208 21.0958 10.7125 21.2875C10.9042 21.4792 11 21.7167 11 22C11 22.2833 10.9042 22.5208 10.7125 22.7125C10.5208 22.9042 10.2833 23 10 23ZM10 19C9.71667 19 9.47917 18.9042 9.2875 18.7125C9.09583 18.5208 9 18.2833 9 18C9 17.7167 9.09583 17.4792 9.2875 17.2875C9.47917 17.0958 9.71667 17 10 17C10.2833 17 10.5208 17.0958 10.7125 17.2875C10.9042 17.4792 11 17.7167 11 18C11 18.2833 10.9042 18.5208 10.7125 18.7125C10.5208 18.9042 10.2833 19 10 19ZM10 15C9.71667 15 9.47917 14.9042 9.2875 14.7125C9.09583 14.5208 9 14.2833 9 14C9 13.7167 9.09583 13.4792 9.2875 13.2875C9.47917 13.0958 9.71667 13 10 13C10.2833 13 10.5208 13.0958 10.7125 13.2875C10.9042 13.4792 11 13.7167 11 14C11 14.2833 10.9042 14.5208 10.7125 14.7125C10.5208 14.9042 10.2833 15 10 15ZM10 11C9.71667 11 9.47917 10.9042 9.2875 10.7125C9.09583 10.5208 9 10.2833 9 10C9 9.71667 9.09583 9.47917 9.2875 9.2875C9.47917 9.09583 9.71667 9 10 9C10.2833 9 10.5208 9.09583 10.7125 9.2875C10.9042 9.47917 11 9.71667 11 10C11 10.2833 10.9042 10.5208 10.7125 10.7125C10.5208 10.9042 10.2833 11 10 11ZM14 19.5C13.5833 19.5 13.2292 19.3542 12.9375 19.0625C12.6458 18.7708 12.5 18.4167 12.5 18C12.5 17.5833 12.6458 17.2292 12.9375 16.9375C13.2292 16.6458 13.5833 16.5 14 16.5C14.4167 16.5 14.7708 16.6458 15.0625 16.9375C15.3542 17.2292 15.5 17.5833 15.5 18C15.5 18.4167 15.3542 18.7708 15.0625 19.0625C14.7708 19.3542 14.4167 19.5 14 19.5ZM14 15.5C13.5833 15.5 13.2292 15.3542 12.9375 15.0625C12.6458 14.7708 12.5 14.4167 12.5 14C12.5 13.5833 12.6458 13.2292 12.9375 12.9375C13.2292 12.6458 13.5833 12.5 14 12.5C14.4167 12.5 14.7708 12.6458 15.0625 12.9375C15.3542 13.2292 15.5 13.5833 15.5 14C15.5 14.4167 15.3542 14.7708 15.0625 15.0625C14.7708 15.3542 14.4167 15.5 14 15.5ZM14 23C13.7167 23 13.4792 22.9042 13.2875 22.7125C13.0958 22.5208 13 22.2833 13 22C13 21.7167 13.0958 21.4792 13.2875 21.2875C13.4792 21.0958 13.7167 21 14 21C14.2833 21 14.5208 21.0958 14.7125 21.2875C14.9042 21.4792 15 21.7167 15 22C15 22.2833 14.9042 22.5208 14.7125 22.7125C14.5208 22.9042 14.2833 23 14 23ZM14 11C13.7167 11 13.4792 10.9042 13.2875 10.7125C13.0958 10.5208 13 10.2833 13 10C13 9.71667 13.0958 9.47917 13.2875 9.2875C13.4792 9.09583 13.7167 9 14 9C14.2833 9 14.5208 9.09583 14.7125 9.2875C14.9042 9.47917 15 9.71667 15 10C15 10.2833 14.9042 10.5208 14.7125 10.7125C14.5208 10.9042 14.2833 11 14 11ZM14 25.5C13.8667 25.5 13.75 25.45 13.65 25.35C13.55 25.25 13.5 25.1333 13.5 25C13.5 24.8667 13.55 24.75 13.65 24.65C13.75 24.55 13.8667 24.5 14 24.5C14.1333 24.5 14.25 24.55 14.35 24.65C14.45 24.75 14.5 24.8667 14.5 25C14.5 25.1333 14.45 25.25 14.35 25.35C14.25 25.45 14.1333 25.5 14 25.5ZM14 7.5C13.8667 7.5 13.75 7.45 13.65 7.35C13.55 7.25 13.5 7.13333 13.5 7C13.5 6.86667 13.55 6.75 13.65 6.65C13.75 6.55 13.8667 6.5 14 6.5C14.1333 6.5 14.25 6.55 14.35 6.65C14.45 6.75 14.5 6.86667 14.5 7C14.5 7.13333 14.45 7.25 14.35 7.35C14.25 7.45 14.1333 7.5 14 7.5ZM18 19.5C17.5833 19.5 17.2292 19.3542 16.9375 19.0625C16.6458 18.7708 16.5 18.4167 16.5 18C16.5 17.5833 16.6458 17.2292 16.9375 16.9375C17.2292 16.6458 17.5833 16.5 18 16.5C18.4167 16.5 18.7708 16.6458 19.0625 16.9375C19.3542 17.2292 19.5 17.5833 19.5 18C19.5 18.4167 19.3542 18.7708 19.0625 19.0625C18.7708 19.3542 18.4167 19.5 18 19.5ZM18 15.5C17.5833 15.5 17.2292 15.3542 16.9375 15.0625C16.6458 14.7708 16.5 14.4167 16.5 14C16.5 13.5833 16.6458 13.2292 16.9375 12.9375C17.2292 12.6458 17.5833 12.5 18 12.5C18.4167 12.5 18.7708 12.6458 19.0625 12.9375C19.3542 13.2292 19.5 13.5833 19.5 14C19.5 14.4167 19.3542 14.7708 19.0625 15.0625C18.7708 15.3542 18.4167 15.5 18 15.5ZM18 23C17.7167 23 17.4792 22.9042 17.2875 22.7125C17.0958 22.5208 17 22.2833 17 22C17 21.7167 17.0958 21.4792 17.2875 21.2875C17.4792 21.0958 17.7167 21 18 21C18.2833 21 18.5208 21.0958 18.7125 21.2875C18.9042 21.4792 19 21.7167 19 22C19 22.2833 18.9042 22.5208 18.7125 22.7125C18.5208 22.9042 18.2833 23 18 23ZM18 11C17.7167 11 17.4792 10.9042 17.2875 10.7125C17.0958 10.5208 17 10.2833 17 10C17 9.71667 17.0958 9.47917 17.2875 9.2875C17.4792 9.09583 17.7167 9 18 9C18.2833 9 18.5208 9.09583 18.7125 9.2875C18.9042 9.47917 19 9.71667 19 10C19 10.2833 18.9042 10.5208 18.7125 10.7125C18.5208 10.9042 18.2833 11 18 11ZM18 25.5C17.8667 25.5 17.75 25.45 17.65 25.35C17.55 25.25 17.5 25.1333 17.5 25C17.5 24.8667 17.55 24.75 17.65 24.65C17.75 24.55 17.8667 24.5 18 24.5C18.1333 24.5 18.25 24.55 18.35 24.65C18.45 24.75 18.5 24.8667 18.5 25C18.5 25.1333 18.45 25.25 18.35 25.35C18.25 25.45 18.1333 25.5 18 25.5ZM18 7.5C17.8667 7.5 17.75 7.45 17.65 7.35C17.55 7.25 17.5 7.13333 17.5 7C17.5 6.86667 17.55 6.75 17.65 6.65C17.75 6.55 17.8667 6.5 18 6.5C18.1333 6.5 18.25 6.55 18.35 6.65C18.45 6.75 18.5 6.86667 18.5 7C18.5 7.13333 18.45 7.25 18.35 7.35C18.25 7.45 18.1333 7.5 18 7.5ZM22 23C21.7167 23 21.4792 22.9042 21.2875 22.7125C21.0958 22.5208 21 22.2833 21 22C21 21.7167 21.0958 21.4792 21.2875 21.2875C21.4792 21.0958 21.7167 21 22 21C22.2833 21 22.5208 21.0958 22.7125 21.2875C22.9042 21.4792 23 21.7167 23 22C23 22.2833 22.9042 22.5208 22.7125 22.7125C22.5208 22.9042 22.2833 23 22 23ZM22 19C21.7167 19 21.4792 18.9042 21.2875 18.7125C21.0958 18.5208 21 18.2833 21 18C21 17.7167 21.0958 17.4792 21.2875 17.2875C21.4792 17.0958 21.7167 17 22 17C22.2833 17 22.5208 17.0958 22.7125 17.2875C22.9042 17.4792 23 17.7167 23 18C23 18.2833 22.9042 18.5208 22.7125 18.7125C22.5208 18.9042 22.2833 19 22 19ZM22 15C21.7167 15 21.4792 14.9042 21.2875 14.7125C21.0958 14.5208 21 14.2833 21 14C21 13.7167 21.0958 13.4792 21.2875 13.2875C21.4792 13.0958 21.7167 13 22 13C22.2833 13 22.5208 13.0958 22.7125 13.2875C22.9042 13.4792 23 13.7167 23 14C23 14.2833 22.9042 14.5208 22.7125 14.7125C22.5208 14.9042 22.2833 15 22 15ZM22 11C21.7167 11 21.4792 10.9042 21.2875 10.7125C21.0958 10.5208 21 10.2833 21 10C21 9.71667 21.0958 9.47917 21.2875 9.2875C21.4792 9.09583 21.7167 9 22 9C22.2833 9 22.5208 9.09583 22.7125 9.2875C22.9042 9.47917 23 9.71667 23 10C23 10.2833 22.9042 10.5208 22.7125 10.7125C22.5208 10.9042 22.2833 11 22 11ZM25 18.5C24.8667 18.5 24.75 18.45 24.65 18.35C24.55 18.25 24.5 18.1333 24.5 18C24.5 17.8667 24.55 17.75 24.65 17.65C24.75 17.55 24.8667 17.5 25 17.5C25.1333 17.5 25.25 17.55 25.35 17.65C25.45 17.75 25.5 17.8667 25.5 18C25.5 18.1333 25.45 18.25 25.35 18.35C25.25 18.45 25.1333 18.5 25 18.5ZM25 14.5C24.8667 14.5 24.75 14.45 24.65 14.35C24.55 14.25 24.5 14.1333 24.5 14C24.5 13.8667 24.55 13.75 24.65 13.65C24.75 13.55 24.8667 13.5 25 13.5C25.1333 13.5 25.25 13.55 25.35 13.65C25.45 13.75 25.5 13.8667 25.5 14C25.5 14.1333 25.45 14.25 25.35 14.35C25.25 14.45 25.1333 14.5 25 14.5Z" fill="#ffffff"/>
</g>
</svg>
