<svg width="24" height="24" viewBox="0 0 24 24" fill="none" xmlns="http://www.w3.org/2000/svg">
<mask id="mask0_4237_3274" style="mask-type:alpha" maskUnits="userSpaceOnUse" x="4" y="4" width="16" height="16">
<rect x="4" y="4" width="16" height="16" fill="#ffffff"/>
</mask>
<g mask="url(#mask0_4237_3274)">
<path d="M5.99996 13.667C5.91107 13.667 5.83329 13.6337 5.76663 13.567C5.69996 13.5003 5.66663 13.4225 5.66663 13.3337C5.66663 13.2448 5.69996 13.167 5.76663 13.1003C5.83329 13.0337 5.91107 13.0003 5.99996 13.0003C6.08885 13.0003 6.16663 13.0337 6.23329 13.1003C6.29996 13.167 6.33329 13.2448 6.33329 13.3337C6.33329 13.4225 6.29996 13.5003 6.23329 13.567C6.16663 13.6337 6.08885 13.667 5.99996 13.667ZM5.99996 11.0003C5.91107 11.0003 5.83329 10.967 5.76663 10.9003C5.69996 10.8337 5.66663 10.7559 5.66663 10.667C5.66663 10.5781 5.69996 10.5003 5.76663 10.4337C5.83329 10.367 5.91107 10.3337 5.99996 10.3337C6.08885 10.3337 6.16663 10.367 6.23329 10.4337C6.29996 10.5003 6.33329 10.5781 6.33329 10.667C6.33329 10.7559 6.29996 10.8337 6.23329 10.9003C6.16663 10.967 6.08885 11.0003 5.99996 11.0003ZM7.99996 16.667C7.81107 16.667 7.65274 16.6031 7.52496 16.4753C7.39718 16.3475 7.33329 16.1892 7.33329 16.0003C7.33329 15.8114 7.39718 15.6531 7.52496 15.5253C7.65274 15.3975 7.81107 15.3337 7.99996 15.3337C8.18885 15.3337 8.34718 15.3975 8.47496 15.5253C8.60274 15.6531 8.66663 15.8114 8.66663 16.0003C8.66663 16.1892 8.60274 16.3475 8.47496 16.4753C8.34718 16.6031 8.18885 16.667 7.99996 16.667ZM7.99996 14.0003C7.81107 14.0003 7.65274 13.9364 7.52496 13.8087C7.39718 13.6809 7.33329 13.5225 7.33329 13.3337C7.33329 13.1448 7.39718 12.9864 7.52496 12.8587C7.65274 12.7309 7.81107 12.667 7.99996 12.667C8.18885 12.667 8.34718 12.7309 8.47496 12.8587C8.60274 12.9864 8.66663 13.1448 8.66663 13.3337C8.66663 13.5225 8.60274 13.6809 8.47496 13.8087C8.34718 13.9364 8.18885 14.0003 7.99996 14.0003ZM7.99996 11.3337C7.81107 11.3337 7.65274 11.2698 7.52496 11.142C7.39718 11.0142 7.33329 10.8559 7.33329 10.667C7.33329 10.4781 7.39718 10.3198 7.52496 10.192C7.65274 10.0642 7.81107 10.0003 7.99996 10.0003C8.18885 10.0003 8.34718 10.0642 8.47496 10.192C8.60274 10.3198 8.66663 10.4781 8.66663 10.667C8.66663 10.8559 8.60274 11.0142 8.47496 11.142C8.34718 11.2698 8.18885 11.3337 7.99996 11.3337ZM7.99996 8.66699C7.81107 8.66699 7.65274 8.6031 7.52496 8.47533C7.39718 8.34755 7.33329 8.18921 7.33329 8.00033C7.33329 7.81144 7.39718 7.6531 7.52496 7.52533C7.65274 7.39755 7.81107 7.33366 7.99996 7.33366C8.18885 7.33366 8.34718 7.39755 8.47496 7.52533C8.60274 7.6531 8.66663 7.81144 8.66663 8.00033C8.66663 8.18921 8.60274 8.34755 8.47496 8.47533C8.34718 8.6031 8.18885 8.66699 7.99996 8.66699ZM10.6666 14.3337C10.3888 14.3337 10.1527 14.2364 9.95829 14.042C9.76385 13.8475 9.66663 13.6114 9.66663 13.3337C9.66663 13.0559 9.76385 12.8198 9.95829 12.6253C10.1527 12.4309 10.3888 12.3337 10.6666 12.3337C10.9444 12.3337 11.1805 12.4309 11.375 12.6253C11.5694 12.8198 11.6666 13.0559 11.6666 13.3337C11.6666 13.6114 11.5694 13.8475 11.375 14.042C11.1805 14.2364 10.9444 14.3337 10.6666 14.3337ZM10.6666 11.667C10.3888 11.667 10.1527 11.5698 9.95829 11.3753C9.76385 11.1809 9.66663 10.9448 9.66663 10.667C9.66663 10.3892 9.76385 10.1531 9.95829 9.95866C10.1527 9.76421 10.3888 9.66699 10.6666 9.66699C10.9444 9.66699 11.1805 9.76421 11.375 9.95866C11.5694 10.1531 11.6666 10.3892 11.6666 10.667C11.6666 10.9448 11.5694 11.1809 11.375 11.3753C11.1805 11.5698 10.9444 11.667 10.6666 11.667ZM10.6666 16.667C10.4777 16.667 10.3194 16.6031 10.1916 16.4753C10.0638 16.3475 9.99996 16.1892 9.99996 16.0003C9.99996 15.8114 10.0638 15.6531 10.1916 15.5253C10.3194 15.3975 10.4777 15.3337 10.6666 15.3337C10.8555 15.3337 11.0138 15.3975 11.1416 15.5253C11.2694 15.6531 11.3333 15.8114 11.3333 16.0003C11.3333 16.1892 11.2694 16.3475 11.1416 16.4753C11.0138 16.6031 10.8555 16.667 10.6666 16.667ZM10.6666 8.66699C10.4777 8.66699 10.3194 8.6031 10.1916 8.47533C10.0638 8.34755 9.99996 8.18921 9.99996 8.00033C9.99996 7.81144 10.0638 7.6531 10.1916 7.52533C10.3194 7.39755 10.4777 7.33366 10.6666 7.33366C10.8555 7.33366 11.0138 7.39755 11.1416 7.52533C11.2694 7.6531 11.3333 7.81144 11.3333 8.00033C11.3333 8.18921 11.2694 8.34755 11.1416 8.47533C11.0138 8.6031 10.8555 8.66699 10.6666 8.66699ZM10.6666 18.3337C10.5777 18.3337 10.5 18.3003 10.4333 18.2337C10.3666 18.167 10.3333 18.0892 10.3333 18.0003C10.3333 17.9114 10.3666 17.8337 10.4333 17.767C10.5 17.7003 10.5777 17.667 10.6666 17.667C10.7555 17.667 10.8333 17.7003 10.9 17.767C10.9666 17.8337 11 17.9114 11 18.0003C11 18.0892 10.9666 18.167 10.9 18.2337C10.8333 18.3003 10.7555 18.3337 10.6666 18.3337ZM10.6666 6.33366C10.5777 6.33366 10.5 6.30033 10.4333 6.23366C10.3666 6.16699 10.3333 6.08921 10.3333 6.00033C10.3333 5.91144 10.3666 5.83366 10.4333 5.76699C10.5 5.70033 10.5777 5.66699 10.6666 5.66699C10.7555 5.66699 10.8333 5.70033 10.9 5.76699C10.9666 5.83366 11 5.91144 11 6.00033C11 6.08921 10.9666 6.16699 10.9 6.23366C10.8333 6.30033 10.7555 6.33366 10.6666 6.33366ZM13.3333 14.3337C13.0555 14.3337 12.8194 14.2364 12.625 14.042C12.4305 13.8475 12.3333 13.6114 12.3333 13.3337C12.3333 13.0559 12.4305 12.8198 12.625 12.6253C12.8194 12.4309 13.0555 12.3337 13.3333 12.3337C13.6111 12.3337 13.8472 12.4309 14.0416 12.6253C14.2361 12.8198 14.3333 13.0559 14.3333 13.3337C14.3333 13.6114 14.2361 13.8475 14.0416 14.042C13.8472 14.2364 13.6111 14.3337 13.3333 14.3337ZM13.3333 11.667C13.0555 11.667 12.8194 11.5698 12.625 11.3753C12.4305 11.1809 12.3333 10.9448 12.3333 10.667C12.3333 10.3892 12.4305 10.1531 12.625 9.95866C12.8194 9.76421 13.0555 9.66699 13.3333 9.66699C13.6111 9.66699 13.8472 9.76421 14.0416 9.95866C14.2361 10.1531 14.3333 10.3892 14.3333 10.667C14.3333 10.9448 14.2361 11.1809 14.0416 11.3753C13.8472 11.5698 13.6111 11.667 13.3333 11.667ZM13.3333 16.667C13.1444 16.667 12.9861 16.6031 12.8583 16.4753C12.7305 16.3475 12.6666 16.1892 12.6666 16.0003C12.6666 15.8114 12.7305 15.6531 12.8583 15.5253C12.9861 15.3975 13.1444 15.3337 13.3333 15.3337C13.5222 15.3337 13.6805 15.3975 13.8083 15.5253C13.9361 15.6531 14 15.8114 14 16.0003C14 16.1892 13.9361 16.3475 13.8083 16.4753C13.6805 16.6031 13.5222 16.667 13.3333 16.667ZM13.3333 8.66699C13.1444 8.66699 12.9861 8.6031 12.8583 8.47533C12.7305 8.34755 12.6666 8.18921 12.6666 8.00033C12.6666 7.81144 12.7305 7.6531 12.8583 7.52533C12.9861 7.39755 13.1444 7.33366 13.3333 7.33366C13.5222 7.33366 13.6805 7.39755 13.8083 7.52533C13.9361 7.6531 14 7.81144 14 8.00033C14 8.18921 13.9361 8.34755 13.8083 8.47533C13.6805 8.6031 13.5222 8.66699 13.3333 8.66699ZM13.3333 18.3337C13.2444 18.3337 13.1666 18.3003 13.1 18.2337C13.0333 18.167 13 18.0892 13 18.0003C13 17.9114 13.0333 17.8337 13.1 17.767C13.1666 17.7003 13.2444 17.667 13.3333 17.667C13.4222 17.667 13.5 17.7003 13.5666 17.767C13.6333 17.8337 13.6666 17.9114 13.6666 18.0003C13.6666 18.0892 13.6333 18.167 13.5666 18.2337C13.5 18.3003 13.4222 18.3337 13.3333 18.3337ZM13.3333 6.33366C13.2444 6.33366 13.1666 6.30033 13.1 6.23366C13.0333 6.16699 13 6.08921 13 6.00033C13 5.91144 13.0333 5.83366 13.1 5.76699C13.1666 5.70033 13.2444 5.66699 13.3333 5.66699C13.4222 5.66699 13.5 5.70033 13.5666 5.76699C13.6333 5.83366 13.6666 5.91144 13.6666 6.00033C13.6666 6.08921 13.6333 6.16699 13.5666 6.23366C13.5 6.30033 13.4222 6.33366 13.3333 6.33366ZM16 16.667C15.8111 16.667 15.6527 16.6031 15.525 16.4753C15.3972 16.3475 15.3333 16.1892 15.3333 16.0003C15.3333 15.8114 15.3972 15.6531 15.525 15.5253C15.6527 15.3975 15.8111 15.3337 16 15.3337C16.1888 15.3337 16.3472 15.3975 16.475 15.5253C16.6027 15.6531 16.6666 15.8114 16.6666 16.0003C16.6666 16.1892 16.6027 16.3475 16.475 16.4753C16.3472 16.6031 16.1888 16.667 16 16.667ZM16 14.0003C15.8111 14.0003 15.6527 13.9364 15.525 13.8087C15.3972 13.6809 15.3333 13.5225 15.3333 13.3337C15.3333 13.1448 15.3972 12.9864 15.525 12.8587C15.6527 12.7309 15.8111 12.667 16 12.667C16.1888 12.667 16.3472 12.7309 16.475 12.8587C16.6027 12.9864 16.6666 13.1448 16.6666 13.3337C16.6666 13.5225 16.6027 13.6809 16.475 13.8087C16.3472 13.9364 16.1888 14.0003 16 14.0003ZM16 11.3337C15.8111 11.3337 15.6527 11.2698 15.525 11.142C15.3972 11.0142 15.3333 10.8559 15.3333 10.667C15.3333 10.4781 15.3972 10.3198 15.525 10.192C15.6527 10.0642 15.8111 10.0003 16 10.0003C16.1888 10.0003 16.3472 10.0642 16.475 10.192C16.6027 10.3198 16.6666 10.4781 16.6666 10.667C16.6666 10.8559 16.6027 11.0142 16.475 11.142C16.3472 11.2698 16.1888 11.3337 16 11.3337ZM16 8.66699C15.8111 8.66699 15.6527 8.6031 15.525 8.47533C15.3972 8.34755 15.3333 8.18921 15.3333 8.00033C15.3333 7.81144 15.3972 7.6531 15.525 7.52533C15.6527 7.39755 15.8111 7.33366 16 7.33366C16.1888 7.33366 16.3472 7.39755 16.475 7.52533C16.6027 7.6531 16.6666 7.81144 16.6666 8.00033C16.6666 8.18921 16.6027 8.34755 16.475 8.47533C16.3472 8.6031 16.1888 8.66699 16 8.66699ZM18 13.667C17.9111 13.667 17.8333 13.6337 17.7666 13.567C17.7 13.5003 17.6666 13.4225 17.6666 13.3337C17.6666 13.2448 17.7 13.167 17.7666 13.1003C17.8333 13.0337 17.9111 13.0003 18 13.0003C18.0888 13.0003 18.1666 13.0337 18.2333 13.1003C18.3 13.167 18.3333 13.2448 18.3333 13.3337C18.3333 13.4225 18.3 13.5003 18.2333 13.567C18.1666 13.6337 18.0888 13.667 18 13.667ZM18 11.0003C17.9111 11.0003 17.8333 10.967 17.7666 10.9003C17.7 10.8337 17.6666 10.7559 17.6666 10.667C17.6666 10.5781 17.7 10.5003 17.7666 10.4337C17.8333 10.367 17.9111 10.3337 18 10.3337C18.0888 10.3337 18.1666 10.367 18.2333 10.4337C18.3 10.5003 18.3333 10.5781 18.3333 10.667C18.3333 10.7559 18.3 10.8337 18.2333 10.9003C18.1666 10.967 18.0888 11.0003 18 11.0003Z" fill="#ffffff"/>
</g>
</svg>
