<svg width="16" height="16" viewBox="0 0 16 16" fill="none" xmlns="http://www.w3.org/2000/svg">
<mask id="mask0_4302_493" style="mask-type:alpha" maskUnits="userSpaceOnUse" x="0" y="0" width="16" height="16">
<rect width="16" height="16" fill="#ffffff"/>
</mask>
<g mask="url(#mask0_4302_493)">
<path d="M2.63325 11.9663C2.22214 11.4108 1.9027 10.7969 1.67492 10.1247C1.44714 9.45245 1.33325 8.74412 1.33325 7.99967C1.33325 7.25523 1.44436 6.54967 1.66659 5.88301C1.88881 5.21634 2.20547 4.60523 2.61659 4.04967L3.58325 4.99967C3.29436 5.4219 3.06936 5.88579 2.90825 6.39134C2.74714 6.8969 2.66659 7.43301 2.66659 7.99967C2.66659 8.56634 2.74714 9.10523 2.90825 9.61634C3.06936 10.1275 3.29436 10.5941 3.58325 11.0163L2.63325 11.9663ZM7.99992 14.6663C7.25547 14.6663 6.54992 14.5552 5.88325 14.333C5.21659 14.1108 4.60547 13.7941 4.04992 13.383L4.99992 12.4163C5.42214 12.7052 5.88603 12.9302 6.39158 13.0913C6.89714 13.2525 7.43325 13.333 7.99992 13.333C8.56659 13.333 9.1027 13.2525 9.60825 13.0913C10.1138 12.9302 10.5777 12.7052 10.9999 12.4163L11.9499 13.383C11.3944 13.7941 10.7833 14.1108 10.1166 14.333C9.44992 14.5552 8.74436 14.6663 7.99992 14.6663ZM13.3666 11.9663L12.4166 11.0163C12.7055 10.5941 12.9305 10.1275 13.0916 9.61634C13.2527 9.10523 13.3333 8.56634 13.3333 7.99967C13.3333 7.43301 13.2527 6.8969 13.0916 6.39134C12.9305 5.88579 12.7055 5.4219 12.4166 4.99967L13.3833 4.04967C13.7944 4.60523 14.111 5.21634 14.3333 5.88301C14.5555 6.54967 14.6666 7.25523 14.6666 7.99967C14.6666 8.74412 14.5527 9.45245 14.3249 10.1247C14.0971 10.7969 13.7777 11.4108 13.3666 11.9663ZM4.98325 3.58301L4.03325 2.63301C4.58881 2.2219 5.2027 1.90245 5.87492 1.67467C6.54714 1.4469 7.25547 1.33301 7.99992 1.33301C8.75547 1.33301 9.46659 1.4469 10.1333 1.67467C10.7999 1.90245 11.411 2.2219 11.9666 2.63301L11.0166 3.58301C10.5944 3.29412 10.1277 3.06912 9.61658 2.90801C9.10547 2.7469 8.56659 2.66634 7.99992 2.66634C7.43325 2.66634 6.89436 2.7469 6.38325 2.90801C5.87214 3.06912 5.40547 3.29412 4.98325 3.58301ZM7.99992 11.333C7.0777 11.333 6.29158 11.008 5.64158 10.358C4.99159 9.70801 4.66658 8.9219 4.66658 7.99967C4.66658 7.07745 4.99159 6.29134 5.64158 5.64134C6.29158 4.99134 7.0777 4.66634 7.99992 4.66634C8.92214 4.66634 9.70825 4.99134 10.3583 5.64134C11.0083 6.29134 11.3333 7.07745 11.3333 7.99967C11.3333 8.9219 11.0083 9.70801 10.3583 10.358C9.70825 11.008 8.92214 11.333 7.99992 11.333Z" fill="#ffffff"/>
</g>
</svg>
