<svg width="17" height="17" viewBox="0 0 17 17" fill="none" xmlns="http://www.w3.org/2000/svg">
<g id="replay">
<mask id="mask0_362_6372" style="mask-type:alpha" maskUnits="userSpaceOnUse" x="0" y="0" width="17" height="17">
<rect id="Bounding box" x="0.666748" y="0.5" width="16" height="16" fill="#ffffff"/>
</mask>
<g mask="url(#mask0_362_6372)">
<path id="replay_2" d="M8.66675 15.166C7.83342 15.166 7.05286 15.0077 6.32508 14.691C5.5973 14.3743 4.96397 13.9466 4.42508 13.4077C3.88619 12.8688 3.45841 12.2355 3.14175 11.5077C2.82508 10.7799 2.66675 9.99935 2.66675 9.16602H4.00008C4.00008 10.466 4.45286 11.5688 5.35841 12.4743C6.26397 13.3799 7.36675 13.8327 8.66675 13.8327C9.96675 13.8327 11.0695 13.3799 11.9751 12.4743C12.8806 11.5688 13.3334 10.466 13.3334 9.16602C13.3334 7.86602 12.8806 6.76324 11.9751 5.85768C11.0695 4.95213 9.96675 4.49935 8.66675 4.49935H8.56675L9.60008 5.53268L8.66675 6.49935L6.00008 3.83268L8.66675 1.16602L9.60008 2.13268L8.56675 3.16602H8.66675C9.50008 3.16602 10.2806 3.32435 11.0084 3.64102C11.7362 3.95768 12.3695 4.38546 12.9084 4.92435C13.4473 5.46324 13.8751 6.09657 14.1917 6.82435C14.5084 7.55213 14.6667 8.33268 14.6667 9.16602C14.6667 9.99935 14.5084 10.7799 14.1917 11.5077C13.8751 12.2355 13.4473 12.8688 12.9084 13.4077C12.3695 13.9466 11.7362 14.3743 11.0084 14.691C10.2806 15.0077 9.50008 15.166 8.66675 15.166Z" fill="#ffffff"/>
</g>
</g>
</svg>
