<svg width="32" height="32" viewBox="0 0 32 32" fill="none" xmlns="http://www.w3.org/2000/svg">
<mask id="mask0_4333_5103" style="mask-type:alpha" maskUnits="userSpaceOnUse" x="4" y="4" width="24" height="24">
<rect x="4" y="4" width="24" height="24" fill="#ffffff"/>
</mask>
<g mask="url(#mask0_4333_5103)">
<path d="M7.95 21.95C7.33333 21.1167 6.85417 20.1958 6.5125 19.1875C6.17083 18.1792 6 17.1167 6 16C6 14.8833 6.16667 13.825 6.5 12.825C6.83333 11.825 7.30833 10.9083 7.925 10.075L9.375 11.5C8.94167 12.1333 8.60417 12.8292 8.3625 13.5875C8.12083 14.3458 8 15.15 8 16C8 16.85 8.12083 17.6583 8.3625 18.425C8.60417 19.1917 8.94167 19.8917 9.375 20.525L7.95 21.95ZM16 26C14.8833 26 13.825 25.8333 12.825 25.5C11.825 25.1667 10.9083 24.6917 10.075 24.075L11.5 22.625C12.1333 23.0583 12.8292 23.3958 13.5875 23.6375C14.3458 23.8792 15.15 24 16 24C16.85 24 17.6542 23.8792 18.4125 23.6375C19.1708 23.3958 19.8667 23.0583 20.5 22.625L21.925 24.075C21.0917 24.6917 20.175 25.1667 19.175 25.5C18.175 25.8333 17.1167 26 16 26ZM24.05 21.95L22.625 20.525C23.0583 19.8917 23.3958 19.1917 23.6375 18.425C23.8792 17.6583 24 16.85 24 16C24 15.15 23.8792 14.3458 23.6375 13.5875C23.3958 12.8292 23.0583 12.1333 22.625 11.5L24.075 10.075C24.6917 10.9083 25.1667 11.825 25.5 12.825C25.8333 13.825 26 14.8833 26 16C26 17.1167 25.8292 18.1792 25.4875 19.1875C25.1458 20.1958 24.6667 21.1167 24.05 21.95ZM11.475 9.375L10.05 7.95C10.8833 7.33333 11.8042 6.85417 12.8125 6.5125C13.8208 6.17083 14.8833 6 16 6C17.1333 6 18.2 6.17083 19.2 6.5125C20.2 6.85417 21.1167 7.33333 21.95 7.95L20.525 9.375C19.8917 8.94167 19.1917 8.60417 18.425 8.3625C17.6583 8.12083 16.85 8 16 8C15.15 8 14.3417 8.12083 13.575 8.3625C12.8083 8.60417 12.1083 8.94167 11.475 9.375ZM16 21C14.6167 21 13.4375 20.5125 12.4625 19.5375C11.4875 18.5625 11 17.3833 11 16C11 14.6167 11.4875 13.4375 12.4625 12.4625C13.4375 11.4875 14.6167 11 16 11C17.3833 11 18.5625 11.4875 19.5375 12.4625C20.5125 13.4375 21 14.6167 21 16C21 17.3833 20.5125 18.5625 19.5375 19.5375C18.5625 20.5125 17.3833 21 16 21Z" fill="#ffffff"/>
</g>
</svg>
