<svg width="16" height="16" viewBox="0 0 16 16" fill="none" xmlns="http://www.w3.org/2000/svg">
<path id="transition_slide_2" d="M1.99984 13.3332C1.63317 13.3332 1.31928 13.2026 1.05817 12.9415C0.797059 12.6804 0.666504 12.3665 0.666504 11.9998V3.99984C0.666504 3.63317 0.797059 3.31928 1.05817 3.05817C1.31928 2.79706 1.63317 2.6665 1.99984 2.6665H3.33317C3.69984 2.6665 4.01373 2.79706 4.27484 3.05817C4.53595 3.31928 4.6665 3.63317 4.6665 3.99984V11.9998C4.6665 12.3665 4.53595 12.6804 4.27484 12.9415C4.01373 13.2026 3.69984 13.3332 3.33317 13.3332H1.99984ZM1.99984 12.0165H3.33317V3.98317H1.99984V12.0165ZM7.33317 13.3332C6.9665 13.3332 6.65262 13.2026 6.3915 12.9415C6.13039 12.6804 5.99984 12.3665 5.99984 11.9998V3.99984C5.99984 3.63317 6.13039 3.31928 6.3915 3.05817C6.65262 2.79706 6.9665 2.6665 7.33317 2.6665H13.9998C14.3665 2.6665 14.6804 2.79706 14.9415 3.05817C15.2026 3.31928 15.3332 3.63317 15.3332 3.99984V11.9998C15.3332 12.3665 15.2026 12.6804 14.9415 12.9415C14.6804 13.2026 14.3665 13.3332 13.9998 13.3332H7.33317ZM7.33317 12.0165H13.9998V3.98317H7.33317V12.0165Z" fill="#FFFFFF"/>
</svg>
