<svg width="16" height="16" viewBox="0 0 16 16" fill="none" xmlns="http://www.w3.org/2000/svg">
<path d="M4.6665 12.666V11.3327H9.39984C10.0998 11.3327 10.7082 11.1105 11.2248 10.666C11.7415 10.2216 11.9998 9.66602 11.9998 8.99935C11.9998 8.33268 11.7415 7.77713 11.2248 7.33268C10.7082 6.88824 10.0998 6.66602 9.39984 6.66602H5.19984L6.93317 8.39935L5.99984 9.33268L2.6665 5.99935L5.99984 2.66602L6.93317 3.59935L5.19984 5.33268H9.39984C10.4776 5.33268 11.4026 5.68268 12.1748 6.38268C12.9471 7.08268 13.3332 7.9549 13.3332 8.99935C13.3332 10.0438 12.9471 10.916 12.1748 11.616C11.4026 12.316 10.4776 12.666 9.39984 12.666H4.6665Z" fill="#ffffff"/>
</svg>
