<svg width="16" height="16" viewBox="0 0 16 16" fill="none" xmlns="http://www.w3.org/2000/svg">
<g id="visibility_off">
<mask id="mask0_362_7874" style="mask-type:alpha" maskUnits="userSpaceOnUse" x="0" y="0" width="16" height="16">
<rect id="Bounding box" width="16" height="16" fill="#ffffff"/>
</mask>
<g mask="url(#mask0_362_7874)">
<path id="visibility_off_2" d="M13.4258 14.1333L13.1963 14.3618L10.751 11.9448L10.5371 11.7329L10.249 11.8228C9.97493 11.9089 9.69996 11.9791 9.42383 12.0327L9.14746 12.0806C8.77984 12.1375 8.39698 12.1665 7.99902 12.1665C6.51862 12.1664 5.20234 11.7846 4.03613 11.0239L3.80469 10.8667C2.62772 10.0338 1.76574 8.96986 1.20898 7.66846C1.35705 7.32095 1.52549 6.98887 1.71973 6.67432L1.95801 6.31299C2.29119 5.83924 2.67054 5.41581 3.0957 5.04248L3.49316 4.69385L3.12305 4.31592L1.63574 2.80322L1.86621 2.57373L13.4258 14.1333ZM3.36523 5.22803C3.10668 5.45986 2.86459 5.70811 2.63965 5.97314L2.4209 6.24365C2.13166 6.61725 1.88481 7.02129 1.68066 7.45361L1.57715 7.67139L1.68457 7.88818C2.24276 9.01572 3.03253 9.93155 4.0498 10.6274L4.25586 10.7632C5.37801 11.4773 6.63005 11.8334 7.99902 11.8335C8.12052 11.8335 8.24118 11.8294 8.36035 11.8218L8.71484 11.7876C8.92886 11.7594 9.14827 11.7285 9.37305 11.6948L10.3223 11.5522L9.66211 10.856L9.0625 10.2231L8.85645 10.0054L8.56738 10.0845C8.51456 10.0989 8.46378 10.1111 8.41504 10.1216L8.27539 10.147C8.19087 10.1597 8.09856 10.1665 7.99902 10.1665C7.38463 10.1664 6.86301 9.9831 6.41504 9.60986L6.22754 9.43799C5.73921 8.94954 5.49902 8.36862 5.49902 7.6665C5.49903 7.56715 5.50591 7.47551 5.51855 7.39111C5.53198 7.30161 5.55321 7.20383 5.58203 7.09814L5.65918 6.81396L5.44824 6.60889L4.04883 5.24268L3.71387 4.91553L3.36523 5.22803ZM7.99902 3.1665C9.47958 3.1665 10.7966 3.54836 11.9629 4.30908L12.1943 4.46631C13.3723 5.29994 14.2343 6.3655 14.791 7.66846C14.562 8.21285 14.2736 8.72155 13.9229 9.19385C13.6196 9.60224 13.2765 9.97003 12.8945 10.2993L12.6484 10.061C12.9204 9.82137 13.174 9.56957 13.4043 9.30029C13.7625 8.88139 14.0666 8.40773 14.3174 7.88232L14.4219 7.6626L14.3145 7.44482C13.7564 6.31747 12.9663 5.4024 11.9492 4.70654L11.7432 4.56982C10.6209 3.85567 9.36812 3.50049 7.99902 3.50049C7.74 3.5005 7.4838 3.51361 7.23047 3.54053L6.97852 3.57178C6.74321 3.6054 6.51083 3.65123 6.28125 3.7085L6.01562 3.44189C6.09838 3.41785 6.18118 3.3944 6.26465 3.37354L6.59668 3.29932C7.04014 3.21168 7.50725 3.16652 7.99902 3.1665ZM7.99902 5.1665C8.70114 5.1665 9.28206 5.40669 9.77051 5.89502C10.259 6.38347 10.499 6.96435 10.499 7.6665C10.499 7.75259 10.4939 7.83493 10.4863 7.91357L8.11914 5.54639L7.75195 5.17822C7.83062 5.17061 7.91292 5.16651 7.99902 5.1665Z" fill="#ffffff" stroke="#ffffff"/>
</g>
</g>
</svg>
