<svg version="1.1" xmlns="http://www.w3.org/2000/svg" xmlns:xlink="http://www.w3.org/1999/xlink" x="0px" y="0px"
	 width="35px" height="31px" viewBox="0 0 35 31" style="enable-background:new 0 0 35 31;" xml:space="preserve" fill="#FFFFFF">
	<path d="M0.7,29.7l2-2.6l-2-2.5h1l1.5,2h0.2l1.5-2h1l-2,2.5l2,2.6H5l-1.6-2H3.2l-1.6,2H0.7z"/>
	<path d="M30.3,30.8v-0.7h2.9c0.2,0,0.3-0.1,0.3-0.3v-1.8h-0.1c-0.1,0.1-0.2,0.3-0.3,0.4c-0.2,0.1-0.3,0.3-0.6,0.3
				c-0.2,0.1-0.5,0.1-0.9,0.1c-0.4,0-0.7-0.1-1-0.2c-0.3-0.2-0.6-0.4-0.7-0.7c-0.2-0.3-0.3-0.7-0.3-1.1v-3.1h0.8v3
				c0,0.5,0.1,0.9,0.4,1.1c0.2,0.2,0.6,0.3,1,0.3c0.5,0,0.9-0.2,1.2-0.5c0.3-0.3,0.5-0.8,0.5-1.4v-2.6h0.8v6.3
				c0,0.3-0.1,0.5-0.2,0.6c-0.2,0.2-0.4,0.2-0.7,0.2L30.3,30.8L30.3,30.8z"/>
	<path d="M15.6,5.1V4l3.2-3.2V0.7h-3.1V0h4v1.1l-3.2,3.2v0.1h3.3v0.7H15.6z"/>
	<path d="M26.3,22.7l-7.2-4.1c0.1-0.2,0.1-0.4,0.1-0.6c0-0.8-0.6-1.4-1.3-1.5V8.3h-0.8v8.4c-0.5,0.2-0.9,0.8-0.9,1.4
			c0,0.1,0,0.3,0.1,0.4l-7.5,4.3l0.4,0.7l7.5-4.3c0.3,0.3,0.6,0.4,1.1,0.4c0.3,0,0.6-0.1,0.9-0.3l7.2,4.2L26.3,22.7z"/>
</svg>