<svg xmlns="http://www.w3.org/2000/svg" viewBox="0 0 199 26">
  <rect width="1" height="26" style="fill: #ffffff; isolation: isolate; opacity: .6;"/>
  <rect x="2" width="1" height="26" style="fill: #ffffff; isolation: isolate; opacity: .6;"/>
  <rect x="4" width="1" height="26" style="fill: #ffffff; isolation: isolate; opacity: .6;"/>
  <rect x="6" width="1" height="26" style="fill: #ffffff; isolation: isolate; opacity: .6;"/>
  <rect x="8" width="1" height="26" style="fill: #ffffff; isolation: isolate; opacity: .6;"/>
  <rect x="10" width="1" height="26" style="fill: #ffffff; isolation: isolate; opacity: .6;"/>
  <rect x="12" width="1" height="26" style="fill: #ffffff; isolation: isolate; opacity: .6;"/>
  <rect x="14" width="1" height="26" style="fill: #ffffff; isolation: isolate; opacity: .6;"/>
  <rect x="16" width="1" height="26" style="fill: #ffffff; isolation: isolate; opacity: .6;"/>
  <rect x="18" width="1" height="26" style="fill: #ffffff; isolation: isolate; opacity: .6;"/>
  <rect x="20" width="1" height="26" style="fill: #ffffff; isolation: isolate; opacity: .6;"/>
  <rect x="22" width="1" height="26" style="fill: #ffffff; isolation: isolate; opacity: .6;"/>
  <rect x="24" width="1" height="26" style="fill: #ffffff; isolation: isolate; opacity: .6;"/>
  <rect x="26" width="1" height="26" style="fill: #ffffff; isolation: isolate; opacity: .6;"/>
  <rect x="28" width="1" height="26" style="fill: #ffffff; isolation: isolate; opacity: .6;"/>
  <rect x="30" width="1" height="26" style="fill: #ffffff; isolation: isolate; opacity: .6;"/>
  <rect x="32" width="1" height="26" style="fill: #ffffff; isolation: isolate; opacity: .6;"/>
  <rect x="34" width="1" height="26" style="fill: #ffffff; isolation: isolate; opacity: .6;"/>
  <rect x="36" width="1" height="26" style="fill: #ffffff; isolation: isolate; opacity: .6;"/>
  <rect x="38" width="1" height="26" style="fill: #ffffff; isolation: isolate; opacity: .6;"/>
  <rect x="40" width="1" height="26" style="fill: #ffffff; isolation: isolate; opacity: .6;"/>
  <rect x="42" width="1" height="26" style="fill: #ffffff; isolation: isolate; opacity: .6;"/>
  <rect x="44" width="1" height="26" style="fill: #ffffff; isolation: isolate; opacity: .6;"/>
  <rect x="46" width="1" height="26" style="fill: #ffffff; isolation: isolate; opacity: .6;"/>
  <rect x="48" width="1" height="26" style="fill: #ffffff; isolation: isolate; opacity: .6;"/>
  <rect x="50" width="1" height="26" style="fill: #ffffff; isolation: isolate; opacity: .6;"/>
  <rect x="52" width="1" height="26" style="fill: #ffffff; isolation: isolate; opacity: .6;"/>
  <rect x="54" width="1" height="26" style="fill: #ffffff; isolation: isolate; opacity: .6;"/>
  <rect x="56" width="1" height="26" style="fill: #ffffff; isolation: isolate; opacity: .6;"/>
  <rect x="58" width="1" height="26" style="fill: #ffffff; isolation: isolate; opacity: .6;"/>
  <rect x="60" width="1" height="26" style="fill: #ffffff; isolation: isolate; opacity: .6;"/>
  <rect x="62" width="1" height="26" style="fill: #ffffff; isolation: isolate; opacity: .6;"/>
  <rect x="64" width="1" height="26" style="fill: #ffffff; isolation: isolate; opacity: .6;"/>
  <rect x="66" width="1" height="26" style="fill: #ffffff; isolation: isolate; opacity: .6;"/>
  <rect x="68" width="1" height="26" style="fill: #ffffff; isolation: isolate; opacity: .6;"/>
  <rect x="70" width="1" height="26" style="fill: #ffffff; isolation: isolate; opacity: .6;"/>
  <rect x="72" width="1" height="26" style="fill: #ffffff; isolation: isolate; opacity: .6;"/>
  <rect x="74" width="1" height="26" style="fill: #ffffff; isolation: isolate; opacity: .6;"/>
  <rect x="76" width="1" height="26" style="fill: #ffffff; isolation: isolate; opacity: .6;"/>
  <rect x="78" width="1" height="26" style="fill: #ffffff; isolation: isolate; opacity: .6;"/>
  <rect x="80" width="1" height="26" style="fill: #ffffff; isolation: isolate; opacity: .6;"/>
  <rect x="82" width="1" height="26" style="fill: #ffffff; isolation: isolate; opacity: .6;"/>
  <rect x="84" width="1" height="26" style="fill: #ffffff; isolation: isolate; opacity: .6;"/>
  <rect x="86" width="1" height="26" style="fill: #ffffff; isolation: isolate; opacity: .6;"/>
  <rect x="88" width="1" height="26" style="fill: #ffffff; isolation: isolate; opacity: .6;"/>
  <rect x="90" width="1" height="26" style="fill: #ffffff; isolation: isolate; opacity: .6;"/>
  <rect x="92" width="1" height="26" style="fill: #ffffff; isolation: isolate; opacity: .6;"/>
  <rect x="94" width="1" height="26" style="fill: #ffffff; isolation: isolate; opacity: .6;"/>
  <rect x="96" width="1" height="26" style="fill: #ffffff; isolation: isolate; opacity: .6;"/>
  <rect x="98" width="1" height="26" style="fill: #ffffff; isolation: isolate; opacity: .6;"/>
  <rect x="100" width="1" height="26" style="fill: #ffffff; isolation: isolate; opacity: .6;"/>
  <rect x="102" width="1" height="26" style="fill: #ffffff; isolation: isolate; opacity: .6;"/>
  <rect x="104" width="1" height="26" style="fill: #ffffff; isolation: isolate; opacity: .6;"/>
  <rect x="106" width="1" height="26" style="fill: #ffffff; isolation: isolate; opacity: .6;"/>
  <rect x="108" width="1" height="26" style="fill: #ffffff; isolation: isolate; opacity: .6;"/>
  <rect x="110" width="1" height="26" style="fill: #ffffff; isolation: isolate; opacity: .6;"/>
  <rect x="112" width="1" height="26" style="fill: #ffffff; isolation: isolate; opacity: .6;"/>
  <rect x="114" width="1" height="26" style="fill: #ffffff; isolation: isolate; opacity: .6;"/>
  <rect x="116" width="1" height="26" style="fill: #ffffff; isolation: isolate; opacity: .6;"/>
  <rect x="118" width="1" height="26" style="fill: #ffffff; isolation: isolate; opacity: .6;"/>
  <rect x="120" width="1" height="26" style="fill: #ffffff; isolation: isolate; opacity: .6;"/>
  <rect x="122" width="1" height="26" style="fill: #ffffff; isolation: isolate; opacity: .6;"/>
  <rect x="124" width="1" height="26" style="fill: #ffffff; isolation: isolate; opacity: .6;"/>
  <rect x="126" width="1" height="26" style="fill: #ffffff; isolation: isolate; opacity: .6;"/>
  <rect x="128" width="1" height="26" style="fill: #ffffff; isolation: isolate; opacity: .6;"/>
  <rect x="130" width="1" height="26" style="fill: #ffffff; isolation: isolate; opacity: .6;"/>
  <rect x="132" width="1" height="26" style="fill: #ffffff; isolation: isolate; opacity: .6;"/>
  <rect x="134" width="1" height="26" style="fill: #ffffff; isolation: isolate; opacity: .6;"/>
  <rect x="136" width="1" height="26" style="fill: #ffffff; isolation: isolate; opacity: .6;"/>
  <rect x="138" width="1" height="26" style="fill: #ffffff; isolation: isolate; opacity: .6;"/>
  <rect x="140" width="1" height="26" style="fill: #ffffff; isolation: isolate; opacity: .6;"/>
  <rect x="142" width="1" height="26" style="fill: #ffffff; isolation: isolate; opacity: .6;"/>
  <rect x="144" width="1" height="26" style="fill: #ffffff; isolation: isolate; opacity: .6;"/>
  <rect x="146" width="1" height="26" style="fill: #ffffff; isolation: isolate; opacity: .6;"/>
  <rect x="148" width="1" height="26" style="fill: #ffffff; isolation: isolate; opacity: .6;"/>
  <rect x="150" width="1" height="26" style="fill: #ffffff; isolation: isolate; opacity: .6;"/>
  <rect x="152" width="1" height="26" style="fill: #ffffff; isolation: isolate; opacity: .6;"/>
  <rect x="154" width="1" height="26" style="fill: #ffffff; isolation: isolate; opacity: .6;"/>
  <rect x="156" width="1" height="26" style="fill: #ffffff; isolation: isolate; opacity: .6;"/>
  <rect x="158" width="1" height="26" style="fill: #ffffff; isolation: isolate; opacity: .6;"/>
  <rect x="160" width="1" height="26" style="fill: #ffffff; isolation: isolate; opacity: .6;"/>
  <rect x="162" width="1" height="26" style="fill: #ffffff; isolation: isolate; opacity: .6;"/>
  <rect x="164" width="1" height="26" style="fill: #ffffff; isolation: isolate; opacity: .6;"/>
  <rect x="166" width="1" height="26" style="fill: #ffffff; isolation: isolate; opacity: .6;"/>
  <rect x="168" width="1" height="26" style="fill: #ffffff; isolation: isolate; opacity: .6;"/>
  <rect x="170" width="1" height="26" style="fill: #ffffff; isolation: isolate; opacity: .6;"/>
  <rect x="172" width="1" height="26" style="fill: #ffffff; isolation: isolate; opacity: .6;"/>
  <rect x="174" width="1" height="26" style="fill: #ffffff; isolation: isolate; opacity: .6;"/>
  <rect x="176" width="1" height="26" style="fill: #ffffff; isolation: isolate; opacity: .6;"/>
  <rect x="178" width="1" height="26" style="fill: #ffffff; isolation: isolate; opacity: .6;"/>
  <rect x="180" width="1" height="26" style="fill: #ffffff; isolation: isolate; opacity: .6;"/>
  <rect x="182" width="1" height="26" style="fill: #ffffff; isolation: isolate; opacity: .6;"/>
  <rect x="184" width="1" height="26" style="fill: #ffffff; isolation: isolate; opacity: .6;"/>
  <rect x="186" width="1" height="26" style="fill: #ffffff; isolation: isolate; opacity: .6;"/>
  <rect x="188" width="1" height="26" style="fill: #ffffff; isolation: isolate; opacity: .6;"/>
  <rect x="190" width="1" height="26" style="fill: #ffffff; isolation: isolate; opacity: .6;"/>
  <rect x="192" width="1" height="26" style="fill: #ffffff; isolation: isolate; opacity: .6;"/>
  <rect x="194" width="1" height="26" style="fill: #ffffff; isolation: isolate; opacity: .6;"/>
  <rect x="196" width="1" height="26" style="fill: #ffffff; isolation: isolate; opacity: .6;"/>
  <rect x="198" width="1" height="26" style="fill: #ffffff; isolation: isolate; opacity: .6;"/>
</svg>