<svg xmlns:xlink="http://www.w3.org/1999/xlink" id="dgi-logo" data-name="DGI logo" xmlns="http://www.w3.org/2000/svg" viewBox="0 0 60 47" width="160"  height="125" >
							<path class="dgi-logo-path" d="M37.73,36.37l.62-2.12.31-1.51.28,1.51.59,2.12Zm.13-6L35.05,39h2l.35-1.2H40l.32,1.2h2.3l-2.73-8.64ZM31.57,39h2.22V30.36H31.57Zm-4.31-8.64H25V39h5.14V37.27H27.26Zm-8.27,6,.62-2.12.32-1.51.27,1.51.6,2.12Zm.13-6L16.31,39h1.9l.35-1.2H21.2l.32,1.2h2.3l-2.73-8.64Zm-2.72,0H10.08v1.81h2V39H14.3V32.17h2.1ZM6.49,39H8.71V30.36H6.49Zm10.2-18.54h.79a1.53,1.53,0,0,1,.91.2.91.91,0,0,1,.29.79v.37a1.09,1.09,0,0,1-.28.81,1.34,1.34,0,0,1-.89.24h-.82Zm0,3.83h.84L19,27.4h2.3L20,24.84l-1-.77a2.4,2.4,0,0,0,1.59-.87A2.65,2.65,0,0,0,21,21.63a3.19,3.19,0,0,0-.23-1.33,2.21,2.21,0,0,0-.68-.89,2.84,2.84,0,0,0-1.07-.5,6.88,6.88,0,0,0-1.43-.15H14.47V27.4h2.22Zm-6.13,3.19.92-1.08.58,1.1h.64V22.58H9.57v1.47h1.17v1.61a2.07,2.07,0,0,1-.47.18,2.76,2.76,0,0,1-.57.06,1.45,1.45,0,0,1-.55-.1,1,1,0,0,1-.44-.38,2.15,2.15,0,0,1-.27-.77,6,6,0,0,1-.1-1.27v-.76a4.59,4.59,0,0,1,.1-1.11,1.49,1.49,0,0,1,.31-.66,1,1,0,0,1,.49-.31,2.1,2.1,0,0,1,.66-.08,6.27,6.27,0,0,1,1.14.1c.35.08.73.17,1.12.3l.2-1.82a5.6,5.6,0,0,0-1.06-.31,6.39,6.39,0,0,0-1.38-.13,4.37,4.37,0,0,0-1.82.34,3.21,3.21,0,0,0-1.22.93,3.79,3.79,0,0,0-.67,1.42A6.6,6.6,0,0,0,6,23.06a8,8,0,0,0,.19,1.82,4,4,0,0,0,.61,1.44,2.79,2.79,0,0,0,1.11.93,3.92,3.92,0,0,0,1.69.33,4.51,4.51,0,0,0,.52,0Zm14.35-2a2.18,2.18,0,0,1-.26-.78,8.36,8.36,0,0,1-.08-1.32V22.6a8.05,8.05,0,0,1,.07-1.2,1.89,1.89,0,0,1,.25-.7.81.81,0,0,1,.43-.34,2.15,2.15,0,0,1,.62-.08,2.74,2.74,0,0,1,.64.08.75.75,0,0,1,.44.32,1.7,1.7,0,0,1,.25.68,5.91,5.91,0,0,1,.09,1.19v.79a7.15,7.15,0,0,1-.09,1.31,2.26,2.26,0,0,1-.25.8.84.84,0,0,1-.43.4A1.56,1.56,0,0,1,26,26a1.65,1.65,0,0,1-.62-.1.84.84,0,0,1-.47-.4Zm2.75,1.72a3.41,3.41,0,0,0,1.17-1,4.33,4.33,0,0,0,.66-1.45A7.35,7.35,0,0,0,29.7,23a7.5,7.5,0,0,0-.21-1.76,3.82,3.82,0,0,0-.65-1.4,3,3,0,0,0-1.15-.93A3.91,3.91,0,0,0,26,18.6a3.88,3.88,0,0,0-1.71.34,3.09,3.09,0,0,0-1.16.93,3.56,3.56,0,0,0-.66,1.42,7.79,7.79,0,0,0,0,3.53,4,4,0,0,0,.65,1.44,3,3,0,0,0,1.15,1,4.35,4.35,0,0,0,3.43,0Zm8.2-.78.43,1h1.54V18.76H35.61v6.91a2.24,2.24,0,0,1-.5.16,2.7,2.7,0,0,1-.69.07.9.9,0,0,1-.77-.31,1.6,1.6,0,0,1-.24-1V18.76H31.19v5.39a5.2,5.2,0,0,0,.23,1.62A2.76,2.76,0,0,0,32,26.83a2.12,2.12,0,0,0,.86.58,3.09,3.09,0,0,0,1,.17,3.53,3.53,0,0,0,.86-.08,4.27,4.27,0,0,0,.48-.13Zm8-4.38a1.62,1.62,0,0,1-.25,1.05,1.06,1.06,0,0,1-.87.28H42V20.46h.78a1.27,1.27,0,0,1,.88.25,1.43,1.43,0,0,1,.26,1Zm1.45-2.54a3.75,3.75,0,0,0-2.48-.76H39.72V27.4H42V25h.89a3.54,3.54,0,0,0,2.5-.81,3,3,0,0,0,.87-2.33,2.86,2.86,0,0,0-.9-2.34Zm.76-12.36v3.08l.27,2.86-.75-2.17L43.73,7.14H41.37V15.8h1.88V12.65L43,10.33l.76,1.58L45.7,15.8H48V7.16ZM33.75,14.72a2.79,2.79,0,0,0,1.11.93,3.92,3.92,0,0,0,1.69.33h.52l.44-.07.92-1.08.58,1.1h.64V11H36.52v1.47h1.17v1.61a2,2,0,0,1-.48.18,2.6,2.6,0,0,1-.56.06,1.72,1.72,0,0,1-.55-.1,1,1,0,0,1-.44-.38,2.38,2.38,0,0,1-.28-.77,7.68,7.68,0,0,1-.1-1.27V11a4.6,4.6,0,0,1,.11-1.11,1.59,1.59,0,0,1,.3-.66,1,1,0,0,1,.5-.31,2,2,0,0,1,.65-.08A6.48,6.48,0,0,1,38,9a10.06,10.06,0,0,1,1.11.3l.21-1.82a5.6,5.6,0,0,0-1.06-.31A7.24,7.24,0,0,0,36.87,7,4.29,4.29,0,0,0,35,7.34a3.25,3.25,0,0,0-1.21.93,3.89,3.89,0,0,0-.68,1.42,7.51,7.51,0,0,0-.2,1.77,8,8,0,0,0,.19,1.82,3.83,3.83,0,0,0,.65,1.44ZM29.11,15.8h2.22V7.16H29.11Zm-4-1.67a1.92,1.92,0,0,1-1,.18,3.81,3.81,0,0,1-1.06-.14,8.17,8.17,0,0,1-1-.38l-.35,1.6a8.41,8.41,0,0,0,1.09.41,5.84,5.84,0,0,0,1.56.18,5.17,5.17,0,0,0,1.46-.18,2.46,2.46,0,0,0,1-.55,2,2,0,0,0,.55-.91,4,4,0,0,0,.17-1.24,3.17,3.17,0,0,0-.18-1.1,1.9,1.9,0,0,0-.48-.76,2.15,2.15,0,0,0-.76-.47,5.85,5.85,0,0,0-1-.25c-.29,0-.51-.09-.69-.14A1.38,1.38,0,0,1,24,10.2a.53.53,0,0,1-.19-.25,1.21,1.21,0,0,1,0-.38A.64.64,0,0,1,24,8.94a2,2,0,0,1,1-.16,4.77,4.77,0,0,1,1,.08c.28.06.58.14.92.24l.21-1.69a5.76,5.76,0,0,0-1-.3A7,7,0,0,0,24.76,7a3.14,3.14,0,0,0-2.27.74,2.71,2.71,0,0,0-.75,2.06,4,4,0,0,0,.15,1.2,1.94,1.94,0,0,0,.44.79,2,2,0,0,0,.7.49,4.93,4.93,0,0,0,.93.26l.74.16a1.5,1.5,0,0,1,.46.17.53.53,0,0,1,.23.24,1.21,1.21,0,0,1,0,.38.69.69,0,0,1-.24.64Zm-4.67-.06H17.13V12.31H19.7V10.62H17.13V9h3.11V7.16H14.91V15.8h5.57Zm-11.86,0V8.94h.83A3.23,3.23,0,0,1,10.1,9a1,1,0,0,1,.49.29,1.47,1.47,0,0,1,.3.63A5.47,5.47,0,0,1,11,11v.72a6.12,6.12,0,0,1-.1,1.21,1.7,1.7,0,0,1-.29.71,1,1,0,0,1-.49.34,3,3,0,0,1-.67.08Zm3.78.59a4.85,4.85,0,0,0,1-3.2,4.88,4.88,0,0,0-.92-3.18,3.41,3.41,0,0,0-2.8-1.12H6.4V15.8H9.53a3.53,3.53,0,0,0,2.87-1.14Z" fill="#FFFFFF"></path>
							<path class="dgi-logo-path" d="M45.84,44.34H2.66V2.66H56.25ZM0,0V47H48.27L60,0Z" fill="#FFFFFF"></path>
						</svg>