<?xml version="1.0" encoding="UTF-8"?>
<svg xmlns="http://www.w3.org/2000/svg" viewBox="0 0 179 17">
  <defs>
    <style>
      .cls-1 {
        fill: #ff671c;
      }
    </style>
  </defs>
  <path class="cls-1" d="M11.04,16.67L15.34.33h5.37l4.3,16.35h-3.18l-.89-3.6h-5.84l-.89,3.6h-3.18ZM15.83,10.23h4.39l-1.98-7.96h-.42l-1.98,7.96Z"/>
  <path class="cls-1" d="M35.91,17c-1.26,0-2.37-.23-3.34-.68s-1.72-1.1-2.27-1.94c-.54-.84-.82-1.85-.82-3.04v-.65h3.04v.65c0,.98.3,1.72.91,2.22.61.48,1.43.72,2.48.72s1.84-.21,2.36-.63c.53-.42.79-.96.79-1.61,0-.45-.13-.82-.4-1.1-.25-.28-.62-.51-1.12-.68-.48-.19-1.07-.36-1.77-.51l-.54-.12c-1.12-.25-2.09-.56-2.9-.93-.79-.39-1.41-.9-1.84-1.52-.42-.62-.63-1.43-.63-2.43s.23-1.84.7-2.55c.48-.72,1.15-1.26,2.01-1.63.87-.39,1.89-.58,3.06-.58s2.2.2,3.11.61c.92.39,1.63.98,2.15,1.77.53.78.79,1.76.79,2.94v.7h-3.04v-.7c0-.62-.12-1.12-.37-1.49-.23-.39-.58-.67-1.03-.84-.45-.19-.99-.28-1.61-.28-.93,0-1.63.18-2.08.54-.44.34-.65.82-.65,1.42,0,.4.1.75.3,1.03.22.28.54.51.96.7.42.19.96.35,1.61.49l.54.12c1.17.25,2.18.57,3.04.96.87.39,1.55.9,2.03,1.54.48.64.72,1.46.72,2.45s-.26,1.88-.77,2.64c-.5.75-1.21,1.34-2.15,1.77-.92.42-2.01.63-3.27.63Z"/>
  <path class="cls-1" d="M50.92,16.67V3.13h-4.76V.33h12.61v2.8h-4.76v13.54h-3.08Z"/>
  <path class="cls-1" d="M64.14,16.67V.33h7.1c1.03,0,1.92.18,2.69.54.76.36,1.35.86,1.77,1.52.42.65.63,1.42.63,2.31v.28c0,.98-.23,1.77-.7,2.38s-1.04,1.05-1.73,1.33v.42c.62.03,1.11.25,1.45.65.34.39.51.91.51,1.56v5.35h-3.08v-4.9c0-.37-.1-.68-.3-.91-.19-.23-.51-.35-.96-.35h-4.3v6.16h-3.08ZM67.22,7.71h3.69c.73,0,1.3-.19,1.7-.58.42-.4.63-.93.63-1.59v-.23c0-.65-.2-1.18-.61-1.56-.4-.4-.98-.61-1.73-.61h-3.69v4.58Z"/>
  <path class="cls-1" d="M88.51,17c-2.05,0-3.69-.56-4.9-1.68-1.21-1.14-1.82-2.76-1.82-4.86v-3.92c0-2.1.61-3.71,1.82-4.83,1.21-1.14,2.85-1.7,4.9-1.7s3.69.57,4.9,1.7c1.21,1.12,1.82,2.73,1.82,4.83v3.92c0,2.1-.61,3.72-1.82,4.86-1.21,1.12-2.85,1.68-4.9,1.68ZM88.51,14.24c1.15,0,2.05-.33,2.69-1s.96-1.56.96-2.69v-4.11c0-1.12-.32-2.02-.96-2.69-.64-.67-1.53-1-2.69-1s-2.03.33-2.69,1c-.64.67-.96,1.56-.96,2.69v4.11c0,1.12.32,2.02.96,2.69.65.67,1.55,1,2.69,1Z"/>
  <path class="cls-1" d="M103.93,16.67L99.77.33h3.18l3.46,14.36h.33l3.46-14.36h3.18l-4.16,16.35h-5.28Z"/>
  <path class="cls-1" d="M118.6,16.67V.33h3.08v16.35h-3.08Z"/>
  <path class="cls-1" d="M133.7,17c-1.26,0-2.37-.23-3.34-.68s-1.72-1.1-2.27-1.94c-.54-.84-.82-1.85-.82-3.04v-.65h3.04v.65c0,.98.3,1.72.91,2.22.61.48,1.43.72,2.48.72s1.84-.21,2.36-.63c.53-.42.79-.96.79-1.61,0-.45-.13-.82-.4-1.1-.25-.28-.62-.51-1.12-.68-.48-.19-1.07-.36-1.77-.51l-.54-.12c-1.12-.25-2.09-.56-2.9-.93-.79-.39-1.41-.9-1.84-1.52-.42-.62-.63-1.43-.63-2.43s.23-1.84.7-2.55c.48-.72,1.15-1.26,2.01-1.63.87-.39,1.89-.58,3.06-.58s2.2.2,3.11.61c.92.39,1.63.98,2.15,1.77.53.78.79,1.76.79,2.94v.7h-3.04v-.7c0-.62-.12-1.12-.37-1.49-.23-.39-.58-.67-1.03-.84-.45-.19-.99-.28-1.61-.28-.93,0-1.63.18-2.08.54-.44.34-.65.82-.65,1.42,0,.4.1.75.3,1.03.22.28.54.51.96.7.42.19.96.35,1.61.49l.54.12c1.17.25,2.18.57,3.04.96.87.39,1.55.9,2.03,1.54.48.64.72,1.46.72,2.45s-.26,1.88-.77,2.64c-.5.75-1.21,1.34-2.15,1.77-.92.42-2.01.63-3.27.63Z"/>
  <path class="cls-1" d="M145.45,16.67V.33h3.08v16.35h-3.08Z"/>
  <path class="cls-1" d="M161.23,17c-2.05,0-3.69-.56-4.9-1.68-1.21-1.14-1.82-2.76-1.82-4.86v-3.92c0-2.1.61-3.71,1.82-4.83,1.21-1.14,2.85-1.7,4.9-1.7s3.69.57,4.9,1.7c1.21,1.12,1.82,2.73,1.82,4.83v3.92c0,2.1-.61,3.72-1.82,4.86-1.21,1.12-2.85,1.68-4.9,1.68ZM161.23,14.24c1.15,0,2.05-.33,2.69-1,.64-.67.96-1.56.96-2.69v-4.11c0-1.12-.32-2.02-.96-2.69-.64-.67-1.53-1-2.69-1s-2.03.33-2.69,1c-.64.67-.96,1.56-.96,2.69v4.11c0,1.12.32,2.02.96,2.69.65.67,1.55,1,2.69,1Z"/>
</svg>