<svg width="162" height="18" viewBox="0 0 162 18" fill="none" xmlns="http://www.w3.org/2000/svg">
<path d="M0.432007 17.5L4.84801 0.699998H10.368L14.784 17.5H11.52L10.608 13.804H4.60801L3.69601 17.5H0.432007ZM5.35201 10.876H9.86401L7.82401 2.692H7.39201L5.35201 10.876ZM25.9869 17.836C24.6909 17.836 23.5469 17.604 22.5549 17.14C21.5629 16.676 20.7869 16.012 20.2269 15.148C19.6669 14.284 19.3869 13.244 19.3869 12.028V11.356H22.5069V12.028C22.5069 13.036 22.8189 13.796 23.4429 14.308C24.0669 14.804 24.9149 15.052 25.9869 15.052C27.0749 15.052 27.8829 14.836 28.4109 14.404C28.9549 13.972 29.2269 13.42 29.2269 12.748C29.2269 12.284 29.0909 11.908 28.8189 11.62C28.5629 11.332 28.1789 11.1 27.6669 10.924C27.1709 10.732 26.5629 10.556 25.8429 10.396L25.2909 10.276C24.1389 10.02 23.1469 9.7 22.3149 9.316C21.4989 8.916 20.8669 8.396 20.4189 7.756C19.9869 7.116 19.7709 6.284 19.7709 5.26C19.7709 4.236 20.0109 3.364 20.4909 2.644C20.9869 1.908 21.6749 1.348 22.5549 0.963999C23.4509 0.563998 24.4989 0.363998 25.6989 0.363998C26.8989 0.363998 27.9629 0.571998 28.8909 0.987998C29.8349 1.388 30.5709 1.996 31.0989 2.812C31.6429 3.612 31.9149 4.62 31.9149 5.836V6.556H28.7949V5.836C28.7949 5.196 28.6669 4.684 28.4109 4.3C28.1709 3.9 27.8189 3.612 27.3549 3.436C26.8909 3.244 26.3389 3.148 25.6989 3.148C24.7389 3.148 24.0269 3.332 23.5629 3.7C23.1149 4.052 22.8909 4.54 22.8909 5.164C22.8909 5.58 22.9949 5.932 23.2029 6.22C23.4269 6.508 23.7549 6.748 24.1869 6.94C24.6189 7.132 25.1709 7.3 25.8429 7.444L26.3949 7.564C27.5949 7.82 28.6349 8.148 29.5149 8.548C30.4109 8.948 31.1069 9.476 31.6029 10.132C32.0989 10.788 32.3469 11.628 32.3469 12.652C32.3469 13.676 32.0829 14.58 31.5549 15.364C31.0429 16.132 30.3069 16.74 29.3469 17.188C28.4029 17.62 27.2829 17.836 25.9869 17.836ZM41.4186 17.5V3.58H36.5226V0.699998H49.4826V3.58H44.5866V17.5H41.4186ZM54.9999 17.5V0.699998H62.2959C63.3519 0.699998 64.2719 0.883998 65.0559 1.252C65.8399 1.62 66.4479 2.14 66.8799 2.812C67.3119 3.484 67.5279 4.276 67.5279 5.188V5.476C67.5279 6.484 67.2879 7.3 66.8079 7.924C66.3279 8.548 65.7359 9.004 65.0319 9.292V9.724C65.6719 9.756 66.1679 9.98 66.5199 10.396C66.8719 10.796 67.0479 11.332 67.0479 12.004V17.5H63.8799V12.46C63.8799 12.076 63.7759 11.764 63.5679 11.524C63.3759 11.284 63.0479 11.164 62.5839 11.164H58.1679V17.5H54.9999ZM58.1679 8.284H61.9599C62.7119 8.284 63.2959 8.084 63.7119 7.684C64.1439 7.268 64.3599 6.724 64.3599 6.052V5.812C64.3599 5.14 64.1519 4.604 63.7359 4.204C63.3199 3.788 62.7279 3.58 61.9599 3.58H58.1679V8.284ZM80.052 17.836C77.94 17.836 76.26 17.26 75.012 16.108C73.764 14.94 73.14 13.276 73.14 11.116V7.084C73.14 4.924 73.764 3.268 75.012 2.116C76.26 0.947998 77.94 0.363998 80.052 0.363998C82.164 0.363998 83.844 0.947998 85.092 2.116C86.34 3.268 86.964 4.924 86.964 7.084V11.116C86.964 13.276 86.34 14.94 85.092 16.108C83.844 17.26 82.164 17.836 80.052 17.836ZM80.052 15.004C81.236 15.004 82.156 14.66 82.812 13.972C83.468 13.284 83.796 12.364 83.796 11.212V6.988C83.796 5.836 83.468 4.916 82.812 4.228C82.156 3.54 81.236 3.196 80.052 3.196C78.884 3.196 77.964 3.54 77.292 4.228C76.636 4.916 76.308 5.836 76.308 6.988V11.212C76.308 12.364 76.636 13.284 77.292 13.972C77.964 14.66 78.884 15.004 80.052 15.004ZM95.895 17.5L91.6226 0.699998H94.887L98.439 15.46H98.775L102.327 0.699998H105.591L101.319 17.5H95.895ZM110.971 17.5V0.699998H114.139V17.5H110.971ZM126.491 17.836C125.195 17.836 124.051 17.604 123.059 17.14C122.067 16.676 121.291 16.012 120.731 15.148C120.171 14.284 119.891 13.244 119.891 12.028V11.356H123.011V12.028C123.011 13.036 123.323 13.796 123.947 14.308C124.571 14.804 125.419 15.052 126.491 15.052C127.579 15.052 128.387 14.836 128.915 14.404C129.459 13.972 129.731 13.42 129.731 12.748C129.731 12.284 129.595 11.908 129.323 11.62C129.067 11.332 128.683 11.1 128.171 10.924C127.675 10.732 127.067 10.556 126.347 10.396L125.795 10.276C124.643 10.02 123.651 9.7 122.819 9.316C122.003 8.916 121.371 8.396 120.923 7.756C120.491 7.116 120.275 6.284 120.275 5.26C120.275 4.236 120.515 3.364 120.995 2.644C121.491 1.908 122.179 1.348 123.059 0.963999C123.955 0.563998 125.003 0.363998 126.203 0.363998C127.403 0.363998 128.467 0.571998 129.395 0.987998C130.339 1.388 131.075 1.996 131.603 2.812C132.147 3.612 132.419 4.62 132.419 5.836V6.556H129.299V5.836C129.299 5.196 129.171 4.684 128.915 4.3C128.675 3.9 128.323 3.612 127.859 3.436C127.395 3.244 126.843 3.148 126.203 3.148C125.243 3.148 124.531 3.332 124.067 3.7C123.619 4.052 123.395 4.54 123.395 5.164C123.395 5.58 123.499 5.932 123.707 6.22C123.931 6.508 124.259 6.748 124.691 6.94C125.123 7.132 125.675 7.3 126.347 7.444L126.899 7.564C128.099 7.82 129.139 8.148 130.019 8.548C130.915 8.948 131.611 9.476 132.107 10.132C132.603 10.788 132.851 11.628 132.851 12.652C132.851 13.676 132.587 14.58 132.059 15.364C131.547 16.132 130.811 16.74 129.851 17.188C128.907 17.62 127.787 17.836 126.491 17.836ZM138.573 17.5V0.699998H141.741V17.5H138.573ZM154.79 17.836C152.678 17.836 150.998 17.26 149.75 16.108C148.502 14.94 147.878 13.276 147.878 11.116V7.084C147.878 4.924 148.502 3.268 149.75 2.116C150.998 0.947998 152.678 0.363998 154.79 0.363998C156.902 0.363998 158.582 0.947998 159.83 2.116C161.078 3.268 161.702 4.924 161.702 7.084V11.116C161.702 13.276 161.078 14.94 159.83 16.108C158.582 17.26 156.902 17.836 154.79 17.836ZM154.79 15.004C155.974 15.004 156.894 14.66 157.55 13.972C158.206 13.284 158.534 12.364 158.534 11.212V6.988C158.534 5.836 158.206 4.916 157.55 4.228C156.894 3.54 155.974 3.196 154.79 3.196C153.622 3.196 152.702 3.54 152.03 4.228C151.374 4.916 151.046 5.836 151.046 6.988V11.212C151.046 12.364 151.374 13.284 152.03 13.972C152.702 14.66 153.622 15.004 154.79 15.004Z" fill="#ffffff"/>
</svg>
