<svg width="220" height="17" viewBox="0 0 220 17" fill="none" xmlns="http://www.w3.org/2000/svg">
<path d="M166.887 13.7771V12.3129C166.887 11.3727 166.674 10.5925 166.25 9.96795C165.827 9.34681 165.197 8.74054 164.234 8.49918C165.104 8.2006 165.713 7.89633 166.19 7.2443C166.669 6.59342 166.909 5.85447 166.909 5.02743C166.909 3.62499 166.464 2.5589 165.572 1.82794C164.678 1.1004 163.398 0.735497 161.73 0.735497H156.455V7.65497H132.862V1.81422H141.4V0.721778H131.59V7.65497H114.343L116.932 0.721778H115.543L113.034 7.65497H108.007L105.495 0.721778H104.105L106.693 7.65497H88.8226L86.2055 0.721778H84.9943L82.3577 7.65497H61.4564V1.81422H66.8177V0.721778H13.2139L7.46748 14.4189H7.40331L1.6787 0.721778H0V16.2765H1.27187V9.40745L1.15616 2.65728L1.21921 2.64583L6.99768 16.2765H7.88573L13.6734 2.58062L13.7387 2.60352L13.631 9.40745V16.2765H14.904V1.81422H31.2633V16.2765H41.129V15.1864H32.5351V8.74512H60.173V16.2765H61.4564V8.74512H81.9418L79.0772 16.2765H80.4063L82.0105 11.94H89.148L90.7521 16.2765H92.0791L89.2339 8.74512H107.101L109.913 16.2765H111.123L113.936 8.74512H131.59V16.2765H141.454V15.1864H132.862V8.74512H156.455V16.2765H157.727V8.74512H162.093C163.131 8.79772 164.266 9.51723 164.793 10.1018C165.349 10.716 165.605 11.3795 165.605 12.3358V13.7543C165.605 14.2542 165.655 14.7346 165.763 15.1979C165.87 15.6589 166.056 16.0192 166.321 16.2765H167.625V16.0192C167.361 15.779 167.173 15.4644 167.059 15.0812C166.942 14.6945 166.887 14.261 166.887 13.7771ZM32.5351 7.65497V1.81422H60.173V7.65497H32.5351ZM85.5626 2.38045H85.6279L87.5702 7.65497H83.6044L85.5626 2.38045ZM88.7298 10.7973H82.4379L83.1988 8.74511H87.9735L88.7298 10.7973ZM110.865 13.649L110.555 14.6842H110.491L110.18 13.649L108.404 8.74512H112.64L110.865 13.649ZM161.57 7.65497H157.727V1.82449H161.73C163.037 1.82449 164.011 2.1002 164.653 2.65271C165.302 3.20176 165.624 3.99105 165.624 5.01598C165.624 5.97916 165.427 6.62547 164.778 7.19169C164.129 7.75792 162.975 7.65497 161.57 7.65497Z" fill="white"/>
<path d="M188.241 7.83814C186.651 7.43777 185.53 6.97791 184.88 6.45403C184.233 5.93242 183.908 5.27808 183.908 4.49336C183.908 3.66863 184.259 2.97656 184.964 2.4229C185.665 1.86582 186.641 1.58899 187.888 1.58899C189.152 1.58899 190.154 1.92415 190.89 2.59336C191.627 3.26253 191.996 4.11704 191.996 5.15454H193.176L193.207 5.09163C193.236 3.81047 192.757 2.72375 191.77 1.83381C190.788 0.944986 189.495 0.5 187.888 0.5C186.348 0.5 185.088 0.872934 184.108 1.62104C183.127 2.36914 182.637 3.33689 182.637 4.52656C182.637 5.68875 183.073 6.60958 183.951 7.29136C184.828 7.9754 186.119 8.53248 187.825 8.95918C189.401 9.37327 190.509 9.84454 191.141 10.3845C191.776 10.9198 192.094 11.6119 192.094 12.4561C192.094 13.346 191.715 14.0587 190.953 14.6009C190.195 15.142 189.199 15.4119 187.964 15.4119C186.738 15.4119 185.67 15.1191 184.766 14.538C183.858 13.958 183.405 13.0612 183.405 11.8532H182.23L182.207 11.9196C182.171 13.4135 182.733 14.5517 183.893 15.3318C185.051 16.1086 186.408 16.4998 187.964 16.4998C189.542 16.4998 190.837 16.1349 191.853 15.4005C192.869 14.6684 193.377 13.68 193.377 12.4401C193.377 11.2538 192.941 10.2929 192.067 9.56771C191.193 8.84248 189.916 8.26595 188.241 7.83814Z" fill="white"/>
<path d="M218.34 2.36938C217.234 1.12253 215.755 0.500244 213.9 0.500244C212.073 0.500244 210.617 1.12253 209.534 2.36938C208.45 3.61508 207.907 5.23713 207.907 7.23896V9.77043C207.907 11.7791 208.45 13.4035 209.538 14.6412C210.627 15.8811 212.083 16.5 213.91 16.5C215.766 16.5 217.243 15.8811 218.344 14.6412C219.447 13.4035 220 11.7791 220 9.77043V7.23896C220 5.23713 219.445 3.61508 218.34 2.36938ZM218.725 9.78415C218.725 11.4886 218.303 12.8521 217.459 13.877C216.612 14.9008 215.428 15.4122 213.91 15.4122C212.427 15.4122 211.27 14.8985 210.438 13.8702C209.607 12.843 209.192 11.4817 209.192 9.78415V7.22639C209.192 5.5437 209.605 4.18933 210.433 3.15983C211.26 2.13486 212.414 1.62128 213.9 1.62128C215.411 1.62128 216.593 2.13486 217.447 3.15983C218.297 4.18933 218.725 5.5437 218.725 7.22639V9.78415Z" fill="white"/>
</svg>
